G04 #@! TF.GenerationSoftware,KiCad,Pcbnew,9.0.0*
G04 #@! TF.CreationDate,2025-06-01T17:38:37+09:00*
G04 #@! TF.ProjectId,ColorTimer-ESP12F,436f6c6f-7254-4696-9d65-722d45535031,rev?*
G04 #@! TF.SameCoordinates,Original*
G04 #@! TF.FileFunction,Soldermask,Top*
G04 #@! TF.FilePolarity,Negative*
%FSLAX46Y46*%
G04 Gerber Fmt 4.6, Leading zero omitted, Abs format (unit mm)*
G04 Created by KiCad (PCBNEW 9.0.0) date 2025-06-01 17:38:37*
%MOMM*%
%LPD*%
G01*
G04 APERTURE LIST*
G04 Aperture macros list*
%AMRoundRect*
0 Rectangle with rounded corners*
0 $1 Rounding radius*
0 $2 $3 $4 $5 $6 $7 $8 $9 X,Y pos of 4 corners*
0 Add a 4 corners polygon primitive as box body*
4,1,4,$2,$3,$4,$5,$6,$7,$8,$9,$2,$3,0*
0 Add four circle primitives for the rounded corners*
1,1,$1+$1,$2,$3*
1,1,$1+$1,$4,$5*
1,1,$1+$1,$6,$7*
1,1,$1+$1,$8,$9*
0 Add four rect primitives between the rounded corners*
20,1,$1+$1,$2,$3,$4,$5,0*
20,1,$1+$1,$4,$5,$6,$7,0*
20,1,$1+$1,$6,$7,$8,$9,0*
20,1,$1+$1,$8,$9,$2,$3,0*%
G04 Aperture macros list end*
%ADD10RoundRect,0.237500X0.237500X-0.250000X0.237500X0.250000X-0.237500X0.250000X-0.237500X-0.250000X0*%
%ADD11RoundRect,0.250000X-0.600000X-0.750000X0.600000X-0.750000X0.600000X0.750000X-0.600000X0.750000X0*%
%ADD12O,1.700000X2.000000*%
%ADD13C,3.200000*%
%ADD14RoundRect,0.200000X-0.200000X-0.800000X0.200000X-0.800000X0.200000X0.800000X-0.200000X0.800000X0*%
%ADD15RoundRect,0.250000X-0.600000X-0.725000X0.600000X-0.725000X0.600000X0.725000X-0.600000X0.725000X0*%
%ADD16O,1.700000X1.950000*%
%ADD17RoundRect,0.237500X0.250000X0.237500X-0.250000X0.237500X-0.250000X-0.237500X0.250000X-0.237500X0*%
%ADD18RoundRect,0.237500X-0.250000X-0.237500X0.250000X-0.237500X0.250000X0.237500X-0.250000X0.237500X0*%
%ADD19RoundRect,0.225000X0.225000X0.375000X-0.225000X0.375000X-0.225000X-0.375000X0.225000X-0.375000X0*%
%ADD20RoundRect,0.200000X0.800000X-0.200000X0.800000X0.200000X-0.800000X0.200000X-0.800000X-0.200000X0*%
%ADD21RoundRect,0.237500X0.300000X0.237500X-0.300000X0.237500X-0.300000X-0.237500X0.300000X-0.237500X0*%
%ADD22RoundRect,0.375000X0.375000X-0.625000X0.375000X0.625000X-0.375000X0.625000X-0.375000X-0.625000X0*%
%ADD23RoundRect,0.500000X1.400000X-0.500000X1.400000X0.500000X-1.400000X0.500000X-1.400000X-0.500000X0*%
%ADD24RoundRect,0.237500X-0.237500X0.300000X-0.237500X-0.300000X0.237500X-0.300000X0.237500X0.300000X0*%
%ADD25RoundRect,0.237500X-0.300000X-0.237500X0.300000X-0.237500X0.300000X0.237500X-0.300000X0.237500X0*%
%ADD26RoundRect,0.250000X-0.750000X0.600000X-0.750000X-0.600000X0.750000X-0.600000X0.750000X0.600000X0*%
%ADD27O,2.000000X1.700000*%
%ADD28R,2.500000X1.100000*%
%ADD29R,1.100000X2.500000*%
%ADD30RoundRect,0.237500X0.287500X0.237500X-0.287500X0.237500X-0.287500X-0.237500X0.287500X-0.237500X0*%
%ADD31R,1.700000X1.700000*%
%ADD32O,1.700000X1.700000*%
%ADD33RoundRect,0.250001X-0.624999X0.462499X-0.624999X-0.462499X0.624999X-0.462499X0.624999X0.462499X0*%
%ADD34RoundRect,0.250000X-0.725000X0.600000X-0.725000X-0.600000X0.725000X-0.600000X0.725000X0.600000X0*%
%ADD35O,1.950000X1.700000*%
G04 APERTURE END LIST*
D10*
X133350000Y-82077500D03*
X133350000Y-83902500D03*
D11*
X118425000Y-72625000D03*
D12*
X120925000Y-72625000D03*
D13*
X139000000Y-43000000D03*
X139000000Y-84000000D03*
D14*
X114590000Y-83420000D03*
X118790000Y-83420000D03*
D15*
X124000000Y-81250000D03*
D16*
X126500000Y-81250000D03*
X129000000Y-81250000D03*
D17*
X99595000Y-75020000D03*
X97770000Y-75020000D03*
D11*
X109300000Y-72575000D03*
D12*
X111800000Y-72575000D03*
D18*
X109737500Y-46690000D03*
X111562500Y-46690000D03*
D19*
X110737500Y-67390000D03*
X107437500Y-67390000D03*
D20*
X110500000Y-52825000D03*
X110500000Y-48625000D03*
D21*
X110930000Y-64970000D03*
X109205000Y-64970000D03*
X107030000Y-65030000D03*
X105305000Y-65030000D03*
D22*
X105980000Y-61470000D03*
X108280000Y-61470000D03*
D23*
X108280000Y-55170000D03*
D22*
X110580000Y-61470000D03*
D17*
X135760000Y-52170000D03*
X133935000Y-52170000D03*
D24*
X112820000Y-64167500D03*
X112820000Y-65892500D03*
D25*
X105107500Y-46190000D03*
X106832500Y-46190000D03*
D17*
X135760000Y-58020000D03*
X133935000Y-58020000D03*
X135760000Y-60960000D03*
X133935000Y-60960000D03*
D18*
X109737500Y-44600000D03*
X111562500Y-44600000D03*
D13*
X98000000Y-43000000D03*
X98000000Y-83910000D03*
D26*
X100825000Y-62625000D03*
D27*
X100825000Y-65125000D03*
D28*
X115540000Y-49890000D03*
X115540000Y-51890000D03*
X115540000Y-53890000D03*
X115540000Y-55890000D03*
X115540000Y-57890000D03*
X115540000Y-59890000D03*
X115540000Y-61890000D03*
X115540000Y-63890000D03*
X130940000Y-63890000D03*
X130940000Y-61890000D03*
X130940000Y-59890000D03*
X130940000Y-57890000D03*
X130940000Y-55890000D03*
X130940000Y-53890000D03*
X130940000Y-51890000D03*
X130940000Y-49890000D03*
D29*
X118230000Y-65590000D03*
X120230000Y-65590000D03*
X122230000Y-65590000D03*
X124230000Y-65590000D03*
X126230000Y-65590000D03*
X128230000Y-65590000D03*
D17*
X106262500Y-83410000D03*
X104437500Y-83410000D03*
D30*
X103650000Y-75000000D03*
X101900000Y-75000000D03*
D18*
X115255000Y-79980000D03*
X117080000Y-79980000D03*
D30*
X110800000Y-80025000D03*
X109050000Y-80025000D03*
D31*
X139000000Y-50460000D03*
D32*
X139000000Y-53000000D03*
X139000000Y-55540000D03*
X139000000Y-58080000D03*
X139000000Y-60620000D03*
X139000000Y-63160000D03*
D17*
X106262500Y-80025000D03*
X104437500Y-80025000D03*
D18*
X133935000Y-63740000D03*
X135760000Y-63740000D03*
D11*
X127425000Y-72625000D03*
D12*
X129925000Y-72625000D03*
D31*
X102780000Y-70490000D03*
D32*
X100240000Y-70490000D03*
X97700000Y-70490000D03*
D26*
X100825000Y-53475000D03*
D27*
X100825000Y-55975000D03*
D17*
X135760000Y-55120000D03*
X133935000Y-55120000D03*
D33*
X106025000Y-49162500D03*
X106025000Y-52137500D03*
D30*
X110800000Y-83410000D03*
X109050000Y-83410000D03*
D34*
X137450000Y-69500000D03*
D35*
X137450000Y-72000000D03*
X137450000Y-74500000D03*
X137450000Y-77000000D03*
M02*
