G04 #@! TF.GenerationSoftware,KiCad,Pcbnew,9.0.0*
G04 #@! TF.CreationDate,2025-05-08T21:16:48+09:00*
G04 #@! TF.ProjectId,ColorTimer-ESP12F,436f6c6f-7254-4696-9d65-722d45535031,rev?*
G04 #@! TF.SameCoordinates,Original*
G04 #@! TF.FileFunction,Soldermask,Top*
G04 #@! TF.FilePolarity,Negative*
%FSLAX46Y46*%
G04 Gerber Fmt 4.6, Leading zero omitted, Abs format (unit mm)*
G04 Created by KiCad (PCBNEW 9.0.0) date 2025-05-08 21:16:48*
%MOMM*%
%LPD*%
G01*
G04 APERTURE LIST*
G04 Aperture macros list*
%AMRoundRect*
0 Rectangle with rounded corners*
0 $1 Rounding radius*
0 $2 $3 $4 $5 $6 $7 $8 $9 X,Y pos of 4 corners*
0 Add a 4 corners polygon primitive as box body*
4,1,4,$2,$3,$4,$5,$6,$7,$8,$9,$2,$3,0*
0 Add four circle primitives for the rounded corners*
1,1,$1+$1,$2,$3*
1,1,$1+$1,$4,$5*
1,1,$1+$1,$6,$7*
1,1,$1+$1,$8,$9*
0 Add four rect primitives between the rounded corners*
20,1,$1+$1,$2,$3,$4,$5,0*
20,1,$1+$1,$4,$5,$6,$7,0*
20,1,$1+$1,$6,$7,$8,$9,0*
20,1,$1+$1,$8,$9,$2,$3,0*%
G04 Aperture macros list end*
%ADD10C,3.200000*%
%ADD11C,1.600000*%
%ADD12O,1.600000X1.600000*%
%ADD13R,1.800000X1.800000*%
%ADD14C,1.800000*%
%ADD15R,1.700000X1.700000*%
%ADD16O,1.700000X1.700000*%
%ADD17R,1.600000X1.600000*%
%ADD18R,2.000000X1.905000*%
%ADD19O,2.000000X1.905000*%
%ADD20R,2.500000X1.100000*%
%ADD21R,1.100000X2.500000*%
%ADD22R,1.350000X0.400000*%
%ADD23O,1.900000X1.200000*%
%ADD24R,1.900000X1.200000*%
%ADD25C,1.450000*%
%ADD26R,1.900000X1.500000*%
%ADD27C,2.000000*%
%ADD28R,1.500000X1.500000*%
%ADD29C,1.500000*%
%ADD30RoundRect,0.250001X-0.462499X-0.624999X0.462499X-0.624999X0.462499X0.624999X-0.462499X0.624999X0*%
%ADD31RoundRect,0.150000X0.687500X0.150000X-0.687500X0.150000X-0.687500X-0.150000X0.687500X-0.150000X0*%
%ADD32R,2.100000X3.300000*%
G04 APERTURE END LIST*
D10*
X164000000Y-43000000D03*
D11*
X128330000Y-72000000D03*
D12*
X118170000Y-72000000D03*
D13*
X158770000Y-46750000D03*
D14*
X156230000Y-46750000D03*
D15*
X164250000Y-66500000D03*
D16*
X161710000Y-66500000D03*
X159170000Y-66500000D03*
D11*
X144400000Y-71950000D03*
X144400000Y-74450000D03*
D17*
X148600000Y-75305100D03*
D11*
X148600000Y-72805100D03*
D10*
X98000000Y-84000000D03*
D11*
X132250000Y-52090000D03*
D12*
X132250000Y-62250000D03*
D18*
X156400000Y-71600000D03*
D19*
X156400000Y-74140000D03*
X156400000Y-76680000D03*
D11*
X125500000Y-52090000D03*
D12*
X125500000Y-62250000D03*
D11*
X148670000Y-42250000D03*
D12*
X158830000Y-42250000D03*
D20*
X105800000Y-49250000D03*
X105800000Y-51250000D03*
X105800000Y-53250000D03*
X105800000Y-55250000D03*
X105800000Y-57250000D03*
X105800000Y-59250000D03*
X105800000Y-61250000D03*
X105800000Y-63250000D03*
X121200000Y-63250000D03*
X121200000Y-61250000D03*
X121200000Y-59250000D03*
X121200000Y-57250000D03*
X121200000Y-55250000D03*
X121200000Y-53250000D03*
X121200000Y-51250000D03*
X121200000Y-49250000D03*
D21*
X108490000Y-64950000D03*
X110490000Y-64950000D03*
X112490000Y-64950000D03*
X114490000Y-64950000D03*
X116490000Y-64950000D03*
X118490000Y-64950000D03*
D15*
X154280000Y-83750000D03*
D16*
X151740000Y-83750000D03*
X149200000Y-83750000D03*
X146660000Y-83750000D03*
X144120000Y-83750000D03*
X141580000Y-83750000D03*
X139040000Y-83750000D03*
X136500000Y-83750000D03*
X133960000Y-83750000D03*
D13*
X113480000Y-81540000D03*
D14*
X116020000Y-81540000D03*
D11*
X114580000Y-72000000D03*
D12*
X104420000Y-72000000D03*
D11*
X133500000Y-67500000D03*
D12*
X123340000Y-67500000D03*
D22*
X159000000Y-57600000D03*
X159000000Y-56950000D03*
X159000000Y-56300000D03*
X159000000Y-55650000D03*
X159000000Y-55000000D03*
D23*
X161700000Y-59800000D03*
D24*
X161700000Y-59200000D03*
D25*
X159000000Y-58800000D03*
D26*
X161700000Y-57300000D03*
X161700000Y-55300000D03*
D25*
X159000000Y-53800000D03*
D24*
X161700000Y-53400000D03*
D23*
X161700000Y-52800000D03*
D15*
X164275000Y-74750000D03*
D16*
X164275000Y-72210000D03*
D13*
X106000000Y-81540000D03*
D14*
X108540000Y-81540000D03*
D27*
X145250000Y-48500000D03*
X138750000Y-48500000D03*
X145250000Y-44000000D03*
X138750000Y-44000000D03*
D11*
X128750000Y-52090000D03*
D12*
X128750000Y-62250000D03*
D11*
X105250000Y-67750000D03*
X107750000Y-67750000D03*
D15*
X155190000Y-51300000D03*
D16*
X155190000Y-53840000D03*
X155190000Y-56380000D03*
X155190000Y-58920000D03*
X155190000Y-61460000D03*
X165200000Y-51300000D03*
X165200000Y-61460000D03*
D11*
X136250000Y-67500000D03*
X138750000Y-67500000D03*
D28*
X151790000Y-67890000D03*
D29*
X149250000Y-67890000D03*
X146710000Y-67890000D03*
D11*
X114580000Y-75250000D03*
D12*
X104420000Y-75250000D03*
D27*
X121750000Y-77750000D03*
X128250000Y-77750000D03*
X121750000Y-82250000D03*
X128250000Y-82250000D03*
D11*
X142750000Y-55000000D03*
X142750000Y-52500000D03*
D10*
X164000000Y-84000000D03*
D28*
X151790000Y-62390000D03*
D29*
X149250000Y-62390000D03*
X146710000Y-62390000D03*
D27*
X135250000Y-48400000D03*
X128750000Y-48400000D03*
X135250000Y-43900000D03*
X128750000Y-43900000D03*
D11*
X139000000Y-52090000D03*
D12*
X139000000Y-62250000D03*
D11*
X135750000Y-52090000D03*
D12*
X135750000Y-62250000D03*
D11*
X144040000Y-61390000D03*
X144040000Y-63890000D03*
D10*
X98000000Y-43000000D03*
D30*
X159025000Y-62400000D03*
X162000000Y-62400000D03*
D15*
X98840000Y-68820000D03*
D16*
X98840000Y-71360000D03*
X98840000Y-73900000D03*
D15*
X98840000Y-56460000D03*
D16*
X98840000Y-59000000D03*
D11*
X151750000Y-50500000D03*
X149250000Y-50500000D03*
D31*
X151500000Y-57500000D03*
X151500000Y-56500000D03*
X151500000Y-55500000D03*
X151500000Y-54500000D03*
X151500000Y-53500000D03*
X146225000Y-53500000D03*
X146225000Y-54500000D03*
X146225000Y-55500000D03*
X146225000Y-56500000D03*
X146225000Y-57500000D03*
D32*
X148862500Y-55500000D03*
M02*
