M48
; DRILL file {KiCad 9.0.0} date 2025-05-28T20:48:07+0900
; FORMAT={-:-/ absolute / metric / decimal}
; #@! TF.CreationDate,2025-05-28T20:48:07+09:00
; #@! TF.GenerationSoftware,Kicad,Pcbnew,9.0.0
; #@! TF.FileFunction,MixedPlating,1,2
FMAT,2
METRIC
; #@! TA.AperFunction,Plated,PTH,ViaDrill
T1C0.300
; #@! TA.AperFunction,Plated,PTH,ComponentDrill
T2C0.950
; #@! TA.AperFunction,Plated,PTH,ComponentDrill
T3C1.000
; #@! TA.AperFunction,NonPlated,NPTH,ComponentDrill
T4C3.200
%
G90
G05
T1
X112.58Y-50.72
X116.21Y-67.21
X117.025Y-78.877
X117.543Y-52.418
X117.557Y-56.194
X118.23Y-48.71
X119.67Y-70.55
X122.64Y-51.58
X126.02Y-51.6
X133.916Y-53.494
X134.97Y-46.08
T2
X124.0Y-81.25
X126.5Y-81.25
X129.0Y-81.25
X137.45Y-69.5
X137.45Y-72.0
X137.45Y-74.5
X137.45Y-77.0
T3
X97.7Y-70.49
X100.24Y-70.49
X100.825Y-53.475
X100.825Y-55.975
X100.825Y-62.625
X100.825Y-65.125
X102.78Y-70.49
X109.3Y-72.575
X111.8Y-72.575
X118.425Y-72.625
X120.925Y-72.625
X127.425Y-72.625
X129.925Y-72.625
X139.0Y-50.46
X139.0Y-53.0
X139.0Y-55.54
X139.0Y-58.08
X139.0Y-60.62
X139.0Y-63.16
T4
X98.0Y-43.0
X98.0Y-83.91
X139.0Y-43.0
X139.0Y-84.0
M30
