M48
; DRILL file {KiCad 9.0.0} date 2025-05-09T21:09:08+0900
; FORMAT={-:-/ absolute / metric / decimal}
; #@! TF.CreationDate,2025-05-09T21:09:08+09:00
; #@! TF.GenerationSoftware,Kicad,Pcbnew,9.0.0
; #@! TF.FileFunction,MixedPlating,1,2
FMAT,2
METRIC
; #@! TA.AperFunction,Plated,PTH,ViaDrill
T1C0.300
; #@! TA.AperFunction,Plated,PTH,ComponentDrill
T2C0.600
; #@! TA.AperFunction,Plated,PTH,ComponentDrill
T3C0.800
; #@! TA.AperFunction,Plated,PTH,ComponentDrill
T4C0.850
; #@! TA.AperFunction,Plated,PTH,ComponentDrill
T5C0.900
; #@! TA.AperFunction,Plated,PTH,ComponentDrill
T6C1.000
; #@! TA.AperFunction,Plated,PTH,ComponentDrill
T7C1.100
; #@! TA.AperFunction,NonPlated,NPTH,ComponentDrill
T8C3.200
%
G90
G05
T1
X101.9Y-63.0
X115.5Y-67.5
X116.5Y-61.5
X130.7Y-64.4
X133.29Y-65.718
X144.886Y-53.776
X146.299Y-59.38
X152.849Y-54.5
X157.17Y-56.96
T3
X104.42Y-72.0
X104.42Y-75.25
X105.25Y-67.75
X107.75Y-67.75
X114.58Y-72.0
X114.58Y-75.25
X118.17Y-72.0
X123.34Y-67.5
X125.5Y-52.09
X125.5Y-62.25
X128.33Y-72.0
X128.75Y-52.09
X128.75Y-62.25
X132.25Y-52.09
X132.25Y-62.25
X133.5Y-67.5
X135.75Y-52.09
X135.75Y-62.25
X136.25Y-67.5
X138.75Y-67.5
X139.0Y-52.09
X139.0Y-62.25
X142.75Y-52.5
X142.75Y-55.0
X144.04Y-61.39
X144.04Y-63.89
X144.4Y-71.95
X144.4Y-74.45
X146.71Y-62.39
X146.71Y-67.89
X148.6Y-72.805
X148.6Y-75.305
X148.67Y-42.25
X149.25Y-50.5
X149.25Y-62.39
X149.25Y-67.89
X151.75Y-50.5
X151.79Y-62.39
X151.79Y-67.89
X158.83Y-42.25
T4
X159.0Y-53.8
X159.0Y-58.8
T5
X106.0Y-81.54
X108.54Y-81.54
X113.48Y-81.54
X116.02Y-81.54
X156.23Y-46.75
X158.77Y-46.75
T6
X98.84Y-56.46
X98.84Y-59.0
X98.84Y-68.82
X98.84Y-71.36
X98.84Y-73.9
X133.96Y-83.75
X136.5Y-83.75
X139.04Y-83.75
X141.58Y-83.75
X144.12Y-83.75
X146.66Y-83.75
X149.2Y-83.75
X151.74Y-83.75
X154.28Y-83.75
X155.19Y-51.3
X155.19Y-53.84
X155.19Y-56.38
X155.19Y-58.92
X155.19Y-61.46
X159.17Y-66.5
X161.71Y-66.5
X164.25Y-66.5
X164.275Y-72.21
X164.275Y-74.75
X165.2Y-51.3
X165.2Y-61.46
T7
X121.75Y-77.75
X121.75Y-82.25
X128.25Y-77.75
X128.25Y-82.25
X128.75Y-43.9
X128.75Y-48.4
X135.25Y-43.9
X135.25Y-48.4
X138.75Y-44.0
X138.75Y-48.5
X145.25Y-44.0
X145.25Y-48.5
X156.4Y-71.6
X156.4Y-74.14
X156.4Y-76.68
T8
X98.0Y-43.0
X98.0Y-84.0
X164.0Y-43.0
X164.0Y-84.0
T2
G00X161.35Y-52.8
M15
G01X162.05Y-52.8
M16
G05
G00X162.05Y-59.8
M15
G01X161.35Y-59.8
M16
G05
M30
