G04 #@! TF.GenerationSoftware,KiCad,Pcbnew,9.0.0*
G04 #@! TF.CreationDate,2025-05-09T21:08:55+09:00*
G04 #@! TF.ProjectId,ColorTimer-ESP12F,436f6c6f-7254-4696-9d65-722d45535031,rev?*
G04 #@! TF.SameCoordinates,Original*
G04 #@! TF.FileFunction,Legend,Top*
G04 #@! TF.FilePolarity,Positive*
%FSLAX46Y46*%
G04 Gerber Fmt 4.6, Leading zero omitted, Abs format (unit mm)*
G04 Created by KiCad (PCBNEW 9.0.0) date 2025-05-09 21:08:55*
%MOMM*%
%LPD*%
G01*
G04 APERTURE LIST*
%ADD10C,0.100000*%
%ADD11C,0.150000*%
%ADD12C,0.120000*%
%ADD13C,0.152400*%
G04 APERTURE END LIST*
D10*
X108378646Y-74652419D02*
X108997693Y-74652419D01*
X108997693Y-74652419D02*
X108664360Y-75033371D01*
X108664360Y-75033371D02*
X108807217Y-75033371D01*
X108807217Y-75033371D02*
X108902455Y-75080990D01*
X108902455Y-75080990D02*
X108950074Y-75128609D01*
X108950074Y-75128609D02*
X108997693Y-75223847D01*
X108997693Y-75223847D02*
X108997693Y-75461942D01*
X108997693Y-75461942D02*
X108950074Y-75557180D01*
X108950074Y-75557180D02*
X108902455Y-75604800D01*
X108902455Y-75604800D02*
X108807217Y-75652419D01*
X108807217Y-75652419D02*
X108521503Y-75652419D01*
X108521503Y-75652419D02*
X108426265Y-75604800D01*
X108426265Y-75604800D02*
X108378646Y-75557180D01*
X109331027Y-74652419D02*
X109950074Y-74652419D01*
X109950074Y-74652419D02*
X109616741Y-75033371D01*
X109616741Y-75033371D02*
X109759598Y-75033371D01*
X109759598Y-75033371D02*
X109854836Y-75080990D01*
X109854836Y-75080990D02*
X109902455Y-75128609D01*
X109902455Y-75128609D02*
X109950074Y-75223847D01*
X109950074Y-75223847D02*
X109950074Y-75461942D01*
X109950074Y-75461942D02*
X109902455Y-75557180D01*
X109902455Y-75557180D02*
X109854836Y-75604800D01*
X109854836Y-75604800D02*
X109759598Y-75652419D01*
X109759598Y-75652419D02*
X109473884Y-75652419D01*
X109473884Y-75652419D02*
X109378646Y-75604800D01*
X109378646Y-75604800D02*
X109331027Y-75557180D01*
X95717580Y-69240074D02*
X95717580Y-68763884D01*
X95717580Y-68763884D02*
X96717580Y-68763884D01*
X96241390Y-69573408D02*
X96241390Y-69906741D01*
X95717580Y-70049598D02*
X95717580Y-69573408D01*
X95717580Y-69573408D02*
X96717580Y-69573408D01*
X96717580Y-69573408D02*
X96717580Y-70049598D01*
X95717580Y-70478170D02*
X96717580Y-70478170D01*
X96717580Y-70478170D02*
X96717580Y-70716265D01*
X96717580Y-70716265D02*
X96669961Y-70859122D01*
X96669961Y-70859122D02*
X96574723Y-70954360D01*
X96574723Y-70954360D02*
X96479485Y-71001979D01*
X96479485Y-71001979D02*
X96289009Y-71049598D01*
X96289009Y-71049598D02*
X96146152Y-71049598D01*
X96146152Y-71049598D02*
X95955676Y-71001979D01*
X95955676Y-71001979D02*
X95860438Y-70954360D01*
X95860438Y-70954360D02*
X95765200Y-70859122D01*
X95765200Y-70859122D02*
X95717580Y-70716265D01*
X95717580Y-70716265D02*
X95717580Y-70478170D01*
X95812819Y-72811503D02*
X95765200Y-72763884D01*
X95765200Y-72763884D02*
X95717580Y-72621027D01*
X95717580Y-72621027D02*
X95717580Y-72525789D01*
X95717580Y-72525789D02*
X95765200Y-72382932D01*
X95765200Y-72382932D02*
X95860438Y-72287694D01*
X95860438Y-72287694D02*
X95955676Y-72240075D01*
X95955676Y-72240075D02*
X96146152Y-72192456D01*
X96146152Y-72192456D02*
X96289009Y-72192456D01*
X96289009Y-72192456D02*
X96479485Y-72240075D01*
X96479485Y-72240075D02*
X96574723Y-72287694D01*
X96574723Y-72287694D02*
X96669961Y-72382932D01*
X96669961Y-72382932D02*
X96717580Y-72525789D01*
X96717580Y-72525789D02*
X96717580Y-72621027D01*
X96717580Y-72621027D02*
X96669961Y-72763884D01*
X96669961Y-72763884D02*
X96622342Y-72811503D01*
X96717580Y-73430551D02*
X96717580Y-73621027D01*
X96717580Y-73621027D02*
X96669961Y-73716265D01*
X96669961Y-73716265D02*
X96574723Y-73811503D01*
X96574723Y-73811503D02*
X96384247Y-73859122D01*
X96384247Y-73859122D02*
X96050914Y-73859122D01*
X96050914Y-73859122D02*
X95860438Y-73811503D01*
X95860438Y-73811503D02*
X95765200Y-73716265D01*
X95765200Y-73716265D02*
X95717580Y-73621027D01*
X95717580Y-73621027D02*
X95717580Y-73430551D01*
X95717580Y-73430551D02*
X95765200Y-73335313D01*
X95765200Y-73335313D02*
X95860438Y-73240075D01*
X95860438Y-73240075D02*
X96050914Y-73192456D01*
X96050914Y-73192456D02*
X96384247Y-73192456D01*
X96384247Y-73192456D02*
X96574723Y-73240075D01*
X96574723Y-73240075D02*
X96669961Y-73335313D01*
X96669961Y-73335313D02*
X96717580Y-73430551D01*
X95717580Y-74287694D02*
X96717580Y-74287694D01*
X96717580Y-74287694D02*
X95717580Y-74859122D01*
X95717580Y-74859122D02*
X96717580Y-74859122D01*
X111887217Y-84428609D02*
X112030074Y-84476228D01*
X112030074Y-84476228D02*
X112077693Y-84523847D01*
X112077693Y-84523847D02*
X112125312Y-84619085D01*
X112125312Y-84619085D02*
X112125312Y-84761942D01*
X112125312Y-84761942D02*
X112077693Y-84857180D01*
X112077693Y-84857180D02*
X112030074Y-84904800D01*
X112030074Y-84904800D02*
X111934836Y-84952419D01*
X111934836Y-84952419D02*
X111553884Y-84952419D01*
X111553884Y-84952419D02*
X111553884Y-83952419D01*
X111553884Y-83952419D02*
X111887217Y-83952419D01*
X111887217Y-83952419D02*
X111982455Y-84000038D01*
X111982455Y-84000038D02*
X112030074Y-84047657D01*
X112030074Y-84047657D02*
X112077693Y-84142895D01*
X112077693Y-84142895D02*
X112077693Y-84238133D01*
X112077693Y-84238133D02*
X112030074Y-84333371D01*
X112030074Y-84333371D02*
X111982455Y-84380990D01*
X111982455Y-84380990D02*
X111887217Y-84428609D01*
X111887217Y-84428609D02*
X111553884Y-84428609D01*
X113030074Y-84952419D02*
X112553884Y-84952419D01*
X112553884Y-84952419D02*
X112553884Y-83952419D01*
X113363408Y-83952419D02*
X113363408Y-84761942D01*
X113363408Y-84761942D02*
X113411027Y-84857180D01*
X113411027Y-84857180D02*
X113458646Y-84904800D01*
X113458646Y-84904800D02*
X113553884Y-84952419D01*
X113553884Y-84952419D02*
X113744360Y-84952419D01*
X113744360Y-84952419D02*
X113839598Y-84904800D01*
X113839598Y-84904800D02*
X113887217Y-84857180D01*
X113887217Y-84857180D02*
X113934836Y-84761942D01*
X113934836Y-84761942D02*
X113934836Y-83952419D01*
X114411027Y-84428609D02*
X114744360Y-84428609D01*
X114887217Y-84952419D02*
X114411027Y-84952419D01*
X114411027Y-84952419D02*
X114411027Y-83952419D01*
X114411027Y-83952419D02*
X114887217Y-83952419D01*
X116553884Y-84952419D02*
X116077694Y-84952419D01*
X116077694Y-84952419D02*
X116077694Y-83952419D01*
X116887218Y-84428609D02*
X117220551Y-84428609D01*
X117363408Y-84952419D02*
X116887218Y-84952419D01*
X116887218Y-84952419D02*
X116887218Y-83952419D01*
X116887218Y-83952419D02*
X117363408Y-83952419D01*
X117791980Y-84952419D02*
X117791980Y-83952419D01*
X117791980Y-83952419D02*
X118030075Y-83952419D01*
X118030075Y-83952419D02*
X118172932Y-84000038D01*
X118172932Y-84000038D02*
X118268170Y-84095276D01*
X118268170Y-84095276D02*
X118315789Y-84190514D01*
X118315789Y-84190514D02*
X118363408Y-84380990D01*
X118363408Y-84380990D02*
X118363408Y-84523847D01*
X118363408Y-84523847D02*
X118315789Y-84714323D01*
X118315789Y-84714323D02*
X118268170Y-84809561D01*
X118268170Y-84809561D02*
X118172932Y-84904800D01*
X118172932Y-84904800D02*
X118030075Y-84952419D01*
X118030075Y-84952419D02*
X117791980Y-84952419D01*
X146427580Y-78351503D02*
X147427580Y-78351503D01*
X147427580Y-79018169D02*
X147427580Y-79208645D01*
X147427580Y-79208645D02*
X147379961Y-79303883D01*
X147379961Y-79303883D02*
X147284723Y-79399121D01*
X147284723Y-79399121D02*
X147094247Y-79446740D01*
X147094247Y-79446740D02*
X146760914Y-79446740D01*
X146760914Y-79446740D02*
X146570438Y-79399121D01*
X146570438Y-79399121D02*
X146475200Y-79303883D01*
X146475200Y-79303883D02*
X146427580Y-79208645D01*
X146427580Y-79208645D02*
X146427580Y-79018169D01*
X146427580Y-79018169D02*
X146475200Y-78922931D01*
X146475200Y-78922931D02*
X146570438Y-78827693D01*
X146570438Y-78827693D02*
X146760914Y-78780074D01*
X146760914Y-78780074D02*
X147094247Y-78780074D01*
X147094247Y-78780074D02*
X147284723Y-78827693D01*
X147284723Y-78827693D02*
X147379961Y-78922931D01*
X147379961Y-78922931D02*
X147427580Y-79018169D01*
X146427580Y-80399121D02*
X146427580Y-79827693D01*
X146427580Y-80113407D02*
X147427580Y-80113407D01*
X147427580Y-80113407D02*
X147284723Y-80018169D01*
X147284723Y-80018169D02*
X147189485Y-79922931D01*
X147189485Y-79922931D02*
X147141866Y-79827693D01*
X147427580Y-80732455D02*
X147427580Y-81351502D01*
X147427580Y-81351502D02*
X147046628Y-81018169D01*
X147046628Y-81018169D02*
X147046628Y-81161026D01*
X147046628Y-81161026D02*
X146999009Y-81256264D01*
X146999009Y-81256264D02*
X146951390Y-81303883D01*
X146951390Y-81303883D02*
X146856152Y-81351502D01*
X146856152Y-81351502D02*
X146618057Y-81351502D01*
X146618057Y-81351502D02*
X146522819Y-81303883D01*
X146522819Y-81303883D02*
X146475200Y-81256264D01*
X146475200Y-81256264D02*
X146427580Y-81161026D01*
X146427580Y-81161026D02*
X146427580Y-80875312D01*
X146427580Y-80875312D02*
X146475200Y-80780074D01*
X146475200Y-80780074D02*
X146522819Y-80732455D01*
X144172419Y-51072306D02*
X144172419Y-51643734D01*
X144172419Y-51358020D02*
X143172419Y-51358020D01*
X143172419Y-51358020D02*
X143315276Y-51453258D01*
X143315276Y-51453258D02*
X143410514Y-51548496D01*
X143410514Y-51548496D02*
X143458133Y-51643734D01*
X143505752Y-50215163D02*
X144172419Y-50215163D01*
X143505752Y-50643734D02*
X144029561Y-50643734D01*
X144029561Y-50643734D02*
X144124800Y-50596115D01*
X144124800Y-50596115D02*
X144172419Y-50500877D01*
X144172419Y-50500877D02*
X144172419Y-50358020D01*
X144172419Y-50358020D02*
X144124800Y-50262782D01*
X144124800Y-50262782D02*
X144077180Y-50215163D01*
D11*
X130308207Y-71354692D02*
X130260588Y-71402312D01*
X130260588Y-71402312D02*
X130117731Y-71449931D01*
X130117731Y-71449931D02*
X130022493Y-71449931D01*
X130022493Y-71449931D02*
X129879636Y-71402312D01*
X129879636Y-71402312D02*
X129784398Y-71307073D01*
X129784398Y-71307073D02*
X129736779Y-71211835D01*
X129736779Y-71211835D02*
X129689160Y-71021359D01*
X129689160Y-71021359D02*
X129689160Y-70878502D01*
X129689160Y-70878502D02*
X129736779Y-70688026D01*
X129736779Y-70688026D02*
X129784398Y-70592788D01*
X129784398Y-70592788D02*
X129879636Y-70497550D01*
X129879636Y-70497550D02*
X130022493Y-70449931D01*
X130022493Y-70449931D02*
X130117731Y-70449931D01*
X130117731Y-70449931D02*
X130260588Y-70497550D01*
X130260588Y-70497550D02*
X130308207Y-70545169D01*
X130927255Y-70449931D02*
X131117731Y-70449931D01*
X131117731Y-70449931D02*
X131212969Y-70497550D01*
X131212969Y-70497550D02*
X131308207Y-70592788D01*
X131308207Y-70592788D02*
X131355826Y-70783264D01*
X131355826Y-70783264D02*
X131355826Y-71116597D01*
X131355826Y-71116597D02*
X131308207Y-71307073D01*
X131308207Y-71307073D02*
X131212969Y-71402312D01*
X131212969Y-71402312D02*
X131117731Y-71449931D01*
X131117731Y-71449931D02*
X130927255Y-71449931D01*
X130927255Y-71449931D02*
X130832017Y-71402312D01*
X130832017Y-71402312D02*
X130736779Y-71307073D01*
X130736779Y-71307073D02*
X130689160Y-71116597D01*
X130689160Y-71116597D02*
X130689160Y-70783264D01*
X130689160Y-70783264D02*
X130736779Y-70592788D01*
X130736779Y-70592788D02*
X130832017Y-70497550D01*
X130832017Y-70497550D02*
X130927255Y-70449931D01*
X132260588Y-71449931D02*
X131784398Y-71449931D01*
X131784398Y-71449931D02*
X131784398Y-70449931D01*
X132784398Y-70449931D02*
X132974874Y-70449931D01*
X132974874Y-70449931D02*
X133070112Y-70497550D01*
X133070112Y-70497550D02*
X133165350Y-70592788D01*
X133165350Y-70592788D02*
X133212969Y-70783264D01*
X133212969Y-70783264D02*
X133212969Y-71116597D01*
X133212969Y-71116597D02*
X133165350Y-71307073D01*
X133165350Y-71307073D02*
X133070112Y-71402312D01*
X133070112Y-71402312D02*
X132974874Y-71449931D01*
X132974874Y-71449931D02*
X132784398Y-71449931D01*
X132784398Y-71449931D02*
X132689160Y-71402312D01*
X132689160Y-71402312D02*
X132593922Y-71307073D01*
X132593922Y-71307073D02*
X132546303Y-71116597D01*
X132546303Y-71116597D02*
X132546303Y-70783264D01*
X132546303Y-70783264D02*
X132593922Y-70592788D01*
X132593922Y-70592788D02*
X132689160Y-70497550D01*
X132689160Y-70497550D02*
X132784398Y-70449931D01*
X134212969Y-71449931D02*
X133879636Y-70973740D01*
X133641541Y-71449931D02*
X133641541Y-70449931D01*
X133641541Y-70449931D02*
X134022493Y-70449931D01*
X134022493Y-70449931D02*
X134117731Y-70497550D01*
X134117731Y-70497550D02*
X134165350Y-70545169D01*
X134165350Y-70545169D02*
X134212969Y-70640407D01*
X134212969Y-70640407D02*
X134212969Y-70783264D01*
X134212969Y-70783264D02*
X134165350Y-70878502D01*
X134165350Y-70878502D02*
X134117731Y-70926121D01*
X134117731Y-70926121D02*
X134022493Y-70973740D01*
X134022493Y-70973740D02*
X133641541Y-70973740D01*
X135260589Y-70449931D02*
X135832017Y-70449931D01*
X135546303Y-71449931D02*
X135546303Y-70449931D01*
X136165351Y-71449931D02*
X136165351Y-70449931D01*
X136641541Y-71449931D02*
X136641541Y-70449931D01*
X136641541Y-70449931D02*
X136974874Y-71164216D01*
X136974874Y-71164216D02*
X137308207Y-70449931D01*
X137308207Y-70449931D02*
X137308207Y-71449931D01*
X137784398Y-70926121D02*
X138117731Y-70926121D01*
X138260588Y-71449931D02*
X137784398Y-71449931D01*
X137784398Y-71449931D02*
X137784398Y-70449931D01*
X137784398Y-70449931D02*
X138260588Y-70449931D01*
X139260588Y-71449931D02*
X138927255Y-70973740D01*
X138689160Y-71449931D02*
X138689160Y-70449931D01*
X138689160Y-70449931D02*
X139070112Y-70449931D01*
X139070112Y-70449931D02*
X139165350Y-70497550D01*
X139165350Y-70497550D02*
X139212969Y-70545169D01*
X139212969Y-70545169D02*
X139260588Y-70640407D01*
X139260588Y-70640407D02*
X139260588Y-70783264D01*
X139260588Y-70783264D02*
X139212969Y-70878502D01*
X139212969Y-70878502D02*
X139165350Y-70926121D01*
X139165350Y-70926121D02*
X139070112Y-70973740D01*
X139070112Y-70973740D02*
X138689160Y-70973740D01*
X130308207Y-73059875D02*
X129974874Y-72583684D01*
X129736779Y-73059875D02*
X129736779Y-72059875D01*
X129736779Y-72059875D02*
X130117731Y-72059875D01*
X130117731Y-72059875D02*
X130212969Y-72107494D01*
X130212969Y-72107494D02*
X130260588Y-72155113D01*
X130260588Y-72155113D02*
X130308207Y-72250351D01*
X130308207Y-72250351D02*
X130308207Y-72393208D01*
X130308207Y-72393208D02*
X130260588Y-72488446D01*
X130260588Y-72488446D02*
X130212969Y-72536065D01*
X130212969Y-72536065D02*
X130117731Y-72583684D01*
X130117731Y-72583684D02*
X129736779Y-72583684D01*
X130736779Y-72536065D02*
X131070112Y-72536065D01*
X131212969Y-73059875D02*
X130736779Y-73059875D01*
X130736779Y-73059875D02*
X130736779Y-72059875D01*
X130736779Y-72059875D02*
X131212969Y-72059875D01*
X131498684Y-72059875D02*
X131832017Y-73059875D01*
X131832017Y-73059875D02*
X132165350Y-72059875D01*
X133022493Y-73059875D02*
X132451065Y-73059875D01*
X132736779Y-73059875D02*
X132736779Y-72059875D01*
X132736779Y-72059875D02*
X132641541Y-72202732D01*
X132641541Y-72202732D02*
X132546303Y-72297970D01*
X132546303Y-72297970D02*
X132451065Y-72345589D01*
X129736779Y-74669819D02*
X129736779Y-73669819D01*
X130308207Y-74669819D02*
X129879636Y-74098390D01*
X130308207Y-73669819D02*
X129736779Y-74241247D01*
X130736779Y-73669819D02*
X130736779Y-74479342D01*
X130736779Y-74479342D02*
X130784398Y-74574580D01*
X130784398Y-74574580D02*
X130832017Y-74622200D01*
X130832017Y-74622200D02*
X130927255Y-74669819D01*
X130927255Y-74669819D02*
X131117731Y-74669819D01*
X131117731Y-74669819D02*
X131212969Y-74622200D01*
X131212969Y-74622200D02*
X131260588Y-74574580D01*
X131260588Y-74574580D02*
X131308207Y-74479342D01*
X131308207Y-74479342D02*
X131308207Y-73669819D01*
X131784398Y-74669819D02*
X131784398Y-73669819D01*
X131784398Y-73669819D02*
X132355826Y-74669819D01*
X132355826Y-74669819D02*
X132355826Y-73669819D01*
X132832017Y-74669819D02*
X132832017Y-73669819D01*
X133308207Y-74288866D02*
X134070112Y-74288866D01*
X134546302Y-74669819D02*
X134546302Y-73669819D01*
X134546302Y-73669819D02*
X135117730Y-74669819D01*
X135117730Y-74669819D02*
X135117730Y-73669819D01*
X135593921Y-74146009D02*
X135927254Y-74146009D01*
X136070111Y-74669819D02*
X135593921Y-74669819D01*
X135593921Y-74669819D02*
X135593921Y-73669819D01*
X135593921Y-73669819D02*
X136070111Y-73669819D01*
X136355826Y-73669819D02*
X136927254Y-73669819D01*
X136641540Y-74669819D02*
X136641540Y-73669819D01*
X137974874Y-73765057D02*
X138022493Y-73717438D01*
X138022493Y-73717438D02*
X138117731Y-73669819D01*
X138117731Y-73669819D02*
X138355826Y-73669819D01*
X138355826Y-73669819D02*
X138451064Y-73717438D01*
X138451064Y-73717438D02*
X138498683Y-73765057D01*
X138498683Y-73765057D02*
X138546302Y-73860295D01*
X138546302Y-73860295D02*
X138546302Y-73955533D01*
X138546302Y-73955533D02*
X138498683Y-74098390D01*
X138498683Y-74098390D02*
X137927255Y-74669819D01*
X137927255Y-74669819D02*
X138546302Y-74669819D01*
X139165350Y-73669819D02*
X139260588Y-73669819D01*
X139260588Y-73669819D02*
X139355826Y-73717438D01*
X139355826Y-73717438D02*
X139403445Y-73765057D01*
X139403445Y-73765057D02*
X139451064Y-73860295D01*
X139451064Y-73860295D02*
X139498683Y-74050771D01*
X139498683Y-74050771D02*
X139498683Y-74288866D01*
X139498683Y-74288866D02*
X139451064Y-74479342D01*
X139451064Y-74479342D02*
X139403445Y-74574580D01*
X139403445Y-74574580D02*
X139355826Y-74622200D01*
X139355826Y-74622200D02*
X139260588Y-74669819D01*
X139260588Y-74669819D02*
X139165350Y-74669819D01*
X139165350Y-74669819D02*
X139070112Y-74622200D01*
X139070112Y-74622200D02*
X139022493Y-74574580D01*
X139022493Y-74574580D02*
X138974874Y-74479342D01*
X138974874Y-74479342D02*
X138927255Y-74288866D01*
X138927255Y-74288866D02*
X138927255Y-74050771D01*
X138927255Y-74050771D02*
X138974874Y-73860295D01*
X138974874Y-73860295D02*
X139022493Y-73765057D01*
X139022493Y-73765057D02*
X139070112Y-73717438D01*
X139070112Y-73717438D02*
X139165350Y-73669819D01*
X139879636Y-73765057D02*
X139927255Y-73717438D01*
X139927255Y-73717438D02*
X140022493Y-73669819D01*
X140022493Y-73669819D02*
X140260588Y-73669819D01*
X140260588Y-73669819D02*
X140355826Y-73717438D01*
X140355826Y-73717438D02*
X140403445Y-73765057D01*
X140403445Y-73765057D02*
X140451064Y-73860295D01*
X140451064Y-73860295D02*
X140451064Y-73955533D01*
X140451064Y-73955533D02*
X140403445Y-74098390D01*
X140403445Y-74098390D02*
X139832017Y-74669819D01*
X139832017Y-74669819D02*
X140451064Y-74669819D01*
X141355826Y-73669819D02*
X140879636Y-73669819D01*
X140879636Y-73669819D02*
X140832017Y-74146009D01*
X140832017Y-74146009D02*
X140879636Y-74098390D01*
X140879636Y-74098390D02*
X140974874Y-74050771D01*
X140974874Y-74050771D02*
X141212969Y-74050771D01*
X141212969Y-74050771D02*
X141308207Y-74098390D01*
X141308207Y-74098390D02*
X141355826Y-74146009D01*
X141355826Y-74146009D02*
X141403445Y-74241247D01*
X141403445Y-74241247D02*
X141403445Y-74479342D01*
X141403445Y-74479342D02*
X141355826Y-74574580D01*
X141355826Y-74574580D02*
X141308207Y-74622200D01*
X141308207Y-74622200D02*
X141212969Y-74669819D01*
X141212969Y-74669819D02*
X140974874Y-74669819D01*
X140974874Y-74669819D02*
X140879636Y-74622200D01*
X140879636Y-74622200D02*
X140832017Y-74574580D01*
D10*
X121928646Y-71411919D02*
X122547693Y-71411919D01*
X122547693Y-71411919D02*
X122214360Y-71792871D01*
X122214360Y-71792871D02*
X122357217Y-71792871D01*
X122357217Y-71792871D02*
X122452455Y-71840490D01*
X122452455Y-71840490D02*
X122500074Y-71888109D01*
X122500074Y-71888109D02*
X122547693Y-71983347D01*
X122547693Y-71983347D02*
X122547693Y-72221442D01*
X122547693Y-72221442D02*
X122500074Y-72316680D01*
X122500074Y-72316680D02*
X122452455Y-72364300D01*
X122452455Y-72364300D02*
X122357217Y-72411919D01*
X122357217Y-72411919D02*
X122071503Y-72411919D01*
X122071503Y-72411919D02*
X121976265Y-72364300D01*
X121976265Y-72364300D02*
X121928646Y-72316680D01*
X122881027Y-71411919D02*
X123500074Y-71411919D01*
X123500074Y-71411919D02*
X123166741Y-71792871D01*
X123166741Y-71792871D02*
X123309598Y-71792871D01*
X123309598Y-71792871D02*
X123404836Y-71840490D01*
X123404836Y-71840490D02*
X123452455Y-71888109D01*
X123452455Y-71888109D02*
X123500074Y-71983347D01*
X123500074Y-71983347D02*
X123500074Y-72221442D01*
X123500074Y-72221442D02*
X123452455Y-72316680D01*
X123452455Y-72316680D02*
X123404836Y-72364300D01*
X123404836Y-72364300D02*
X123309598Y-72411919D01*
X123309598Y-72411919D02*
X123023884Y-72411919D01*
X123023884Y-72411919D02*
X122928646Y-72364300D01*
X122928646Y-72364300D02*
X122881027Y-72316680D01*
X124119122Y-71411919D02*
X124214360Y-71411919D01*
X124214360Y-71411919D02*
X124309598Y-71459538D01*
X124309598Y-71459538D02*
X124357217Y-71507157D01*
X124357217Y-71507157D02*
X124404836Y-71602395D01*
X124404836Y-71602395D02*
X124452455Y-71792871D01*
X124452455Y-71792871D02*
X124452455Y-72030966D01*
X124452455Y-72030966D02*
X124404836Y-72221442D01*
X124404836Y-72221442D02*
X124357217Y-72316680D01*
X124357217Y-72316680D02*
X124309598Y-72364300D01*
X124309598Y-72364300D02*
X124214360Y-72411919D01*
X124214360Y-72411919D02*
X124119122Y-72411919D01*
X124119122Y-72411919D02*
X124023884Y-72364300D01*
X124023884Y-72364300D02*
X123976265Y-72316680D01*
X123976265Y-72316680D02*
X123928646Y-72221442D01*
X123928646Y-72221442D02*
X123881027Y-72030966D01*
X123881027Y-72030966D02*
X123881027Y-71792871D01*
X123881027Y-71792871D02*
X123928646Y-71602395D01*
X123928646Y-71602395D02*
X123976265Y-71507157D01*
X123976265Y-71507157D02*
X124023884Y-71459538D01*
X124023884Y-71459538D02*
X124119122Y-71411919D01*
X151867657Y-75243734D02*
X151820038Y-75196115D01*
X151820038Y-75196115D02*
X151772419Y-75100877D01*
X151772419Y-75100877D02*
X151772419Y-74862782D01*
X151772419Y-74862782D02*
X151820038Y-74767544D01*
X151820038Y-74767544D02*
X151867657Y-74719925D01*
X151867657Y-74719925D02*
X151962895Y-74672306D01*
X151962895Y-74672306D02*
X152058133Y-74672306D01*
X152058133Y-74672306D02*
X152200990Y-74719925D01*
X152200990Y-74719925D02*
X152772419Y-75291353D01*
X152772419Y-75291353D02*
X152772419Y-74672306D01*
X151867657Y-74291353D02*
X151820038Y-74243734D01*
X151820038Y-74243734D02*
X151772419Y-74148496D01*
X151772419Y-74148496D02*
X151772419Y-73910401D01*
X151772419Y-73910401D02*
X151820038Y-73815163D01*
X151820038Y-73815163D02*
X151867657Y-73767544D01*
X151867657Y-73767544D02*
X151962895Y-73719925D01*
X151962895Y-73719925D02*
X152058133Y-73719925D01*
X152058133Y-73719925D02*
X152200990Y-73767544D01*
X152200990Y-73767544D02*
X152772419Y-74338972D01*
X152772419Y-74338972D02*
X152772419Y-73719925D01*
X152105752Y-72862782D02*
X152772419Y-72862782D01*
X152105752Y-73291353D02*
X152629561Y-73291353D01*
X152629561Y-73291353D02*
X152724800Y-73243734D01*
X152724800Y-73243734D02*
X152772419Y-73148496D01*
X152772419Y-73148496D02*
X152772419Y-73005639D01*
X152772419Y-73005639D02*
X152724800Y-72910401D01*
X152724800Y-72910401D02*
X152677180Y-72862782D01*
X110403884Y-55586109D02*
X110737217Y-55586109D01*
X110880074Y-56109919D02*
X110403884Y-56109919D01*
X110403884Y-56109919D02*
X110403884Y-55109919D01*
X110403884Y-55109919D02*
X110880074Y-55109919D01*
X111261027Y-56062300D02*
X111403884Y-56109919D01*
X111403884Y-56109919D02*
X111641979Y-56109919D01*
X111641979Y-56109919D02*
X111737217Y-56062300D01*
X111737217Y-56062300D02*
X111784836Y-56014680D01*
X111784836Y-56014680D02*
X111832455Y-55919442D01*
X111832455Y-55919442D02*
X111832455Y-55824204D01*
X111832455Y-55824204D02*
X111784836Y-55728966D01*
X111784836Y-55728966D02*
X111737217Y-55681347D01*
X111737217Y-55681347D02*
X111641979Y-55633728D01*
X111641979Y-55633728D02*
X111451503Y-55586109D01*
X111451503Y-55586109D02*
X111356265Y-55538490D01*
X111356265Y-55538490D02*
X111308646Y-55490871D01*
X111308646Y-55490871D02*
X111261027Y-55395633D01*
X111261027Y-55395633D02*
X111261027Y-55300395D01*
X111261027Y-55300395D02*
X111308646Y-55205157D01*
X111308646Y-55205157D02*
X111356265Y-55157538D01*
X111356265Y-55157538D02*
X111451503Y-55109919D01*
X111451503Y-55109919D02*
X111689598Y-55109919D01*
X111689598Y-55109919D02*
X111832455Y-55157538D01*
X112261027Y-56109919D02*
X112261027Y-55109919D01*
X112261027Y-55109919D02*
X112641979Y-55109919D01*
X112641979Y-55109919D02*
X112737217Y-55157538D01*
X112737217Y-55157538D02*
X112784836Y-55205157D01*
X112784836Y-55205157D02*
X112832455Y-55300395D01*
X112832455Y-55300395D02*
X112832455Y-55443252D01*
X112832455Y-55443252D02*
X112784836Y-55538490D01*
X112784836Y-55538490D02*
X112737217Y-55586109D01*
X112737217Y-55586109D02*
X112641979Y-55633728D01*
X112641979Y-55633728D02*
X112261027Y-55633728D01*
X113261027Y-55728966D02*
X114022932Y-55728966D01*
X115022931Y-56109919D02*
X114451503Y-56109919D01*
X114737217Y-56109919D02*
X114737217Y-55109919D01*
X114737217Y-55109919D02*
X114641979Y-55252776D01*
X114641979Y-55252776D02*
X114546741Y-55348014D01*
X114546741Y-55348014D02*
X114451503Y-55395633D01*
X115403884Y-55205157D02*
X115451503Y-55157538D01*
X115451503Y-55157538D02*
X115546741Y-55109919D01*
X115546741Y-55109919D02*
X115784836Y-55109919D01*
X115784836Y-55109919D02*
X115880074Y-55157538D01*
X115880074Y-55157538D02*
X115927693Y-55205157D01*
X115927693Y-55205157D02*
X115975312Y-55300395D01*
X115975312Y-55300395D02*
X115975312Y-55395633D01*
X115975312Y-55395633D02*
X115927693Y-55538490D01*
X115927693Y-55538490D02*
X115356265Y-56109919D01*
X115356265Y-56109919D02*
X115975312Y-56109919D01*
X116737217Y-55586109D02*
X116403884Y-55586109D01*
X116403884Y-56109919D02*
X116403884Y-55109919D01*
X116403884Y-55109919D02*
X116880074Y-55109919D01*
X130565312Y-42372419D02*
X130231979Y-41896228D01*
X129993884Y-42372419D02*
X129993884Y-41372419D01*
X129993884Y-41372419D02*
X130374836Y-41372419D01*
X130374836Y-41372419D02*
X130470074Y-41420038D01*
X130470074Y-41420038D02*
X130517693Y-41467657D01*
X130517693Y-41467657D02*
X130565312Y-41562895D01*
X130565312Y-41562895D02*
X130565312Y-41705752D01*
X130565312Y-41705752D02*
X130517693Y-41800990D01*
X130517693Y-41800990D02*
X130470074Y-41848609D01*
X130470074Y-41848609D02*
X130374836Y-41896228D01*
X130374836Y-41896228D02*
X129993884Y-41896228D01*
X130993884Y-41848609D02*
X131327217Y-41848609D01*
X131470074Y-42372419D02*
X130993884Y-42372419D01*
X130993884Y-42372419D02*
X130993884Y-41372419D01*
X130993884Y-41372419D02*
X131470074Y-41372419D01*
X131851027Y-42324800D02*
X131993884Y-42372419D01*
X131993884Y-42372419D02*
X132231979Y-42372419D01*
X132231979Y-42372419D02*
X132327217Y-42324800D01*
X132327217Y-42324800D02*
X132374836Y-42277180D01*
X132374836Y-42277180D02*
X132422455Y-42181942D01*
X132422455Y-42181942D02*
X132422455Y-42086704D01*
X132422455Y-42086704D02*
X132374836Y-41991466D01*
X132374836Y-41991466D02*
X132327217Y-41943847D01*
X132327217Y-41943847D02*
X132231979Y-41896228D01*
X132231979Y-41896228D02*
X132041503Y-41848609D01*
X132041503Y-41848609D02*
X131946265Y-41800990D01*
X131946265Y-41800990D02*
X131898646Y-41753371D01*
X131898646Y-41753371D02*
X131851027Y-41658133D01*
X131851027Y-41658133D02*
X131851027Y-41562895D01*
X131851027Y-41562895D02*
X131898646Y-41467657D01*
X131898646Y-41467657D02*
X131946265Y-41420038D01*
X131946265Y-41420038D02*
X132041503Y-41372419D01*
X132041503Y-41372419D02*
X132279598Y-41372419D01*
X132279598Y-41372419D02*
X132422455Y-41420038D01*
X132851027Y-41848609D02*
X133184360Y-41848609D01*
X133327217Y-42372419D02*
X132851027Y-42372419D01*
X132851027Y-42372419D02*
X132851027Y-41372419D01*
X132851027Y-41372419D02*
X133327217Y-41372419D01*
X133612932Y-41372419D02*
X134184360Y-41372419D01*
X133898646Y-42372419D02*
X133898646Y-41372419D01*
X141462419Y-63805639D02*
X141462419Y-63710401D01*
X141462419Y-63710401D02*
X141510038Y-63615163D01*
X141510038Y-63615163D02*
X141557657Y-63567544D01*
X141557657Y-63567544D02*
X141652895Y-63519925D01*
X141652895Y-63519925D02*
X141843371Y-63472306D01*
X141843371Y-63472306D02*
X142081466Y-63472306D01*
X142081466Y-63472306D02*
X142271942Y-63519925D01*
X142271942Y-63519925D02*
X142367180Y-63567544D01*
X142367180Y-63567544D02*
X142414800Y-63615163D01*
X142414800Y-63615163D02*
X142462419Y-63710401D01*
X142462419Y-63710401D02*
X142462419Y-63805639D01*
X142462419Y-63805639D02*
X142414800Y-63900877D01*
X142414800Y-63900877D02*
X142367180Y-63948496D01*
X142367180Y-63948496D02*
X142271942Y-63996115D01*
X142271942Y-63996115D02*
X142081466Y-64043734D01*
X142081466Y-64043734D02*
X141843371Y-64043734D01*
X141843371Y-64043734D02*
X141652895Y-63996115D01*
X141652895Y-63996115D02*
X141557657Y-63948496D01*
X141557657Y-63948496D02*
X141510038Y-63900877D01*
X141510038Y-63900877D02*
X141462419Y-63805639D01*
X142367180Y-63043734D02*
X142414800Y-62996115D01*
X142414800Y-62996115D02*
X142462419Y-63043734D01*
X142462419Y-63043734D02*
X142414800Y-63091353D01*
X142414800Y-63091353D02*
X142367180Y-63043734D01*
X142367180Y-63043734D02*
X142462419Y-63043734D01*
X142462419Y-62043735D02*
X142462419Y-62615163D01*
X142462419Y-62329449D02*
X141462419Y-62329449D01*
X141462419Y-62329449D02*
X141605276Y-62424687D01*
X141605276Y-62424687D02*
X141700514Y-62519925D01*
X141700514Y-62519925D02*
X141748133Y-62615163D01*
X141795752Y-61186592D02*
X142462419Y-61186592D01*
X141795752Y-61615163D02*
X142319561Y-61615163D01*
X142319561Y-61615163D02*
X142414800Y-61567544D01*
X142414800Y-61567544D02*
X142462419Y-61472306D01*
X142462419Y-61472306D02*
X142462419Y-61329449D01*
X142462419Y-61329449D02*
X142414800Y-61234211D01*
X142414800Y-61234211D02*
X142367180Y-61186592D01*
X153157693Y-42762419D02*
X152586265Y-42762419D01*
X152871979Y-42762419D02*
X152871979Y-41762419D01*
X152871979Y-41762419D02*
X152776741Y-41905276D01*
X152776741Y-41905276D02*
X152681503Y-42000514D01*
X152681503Y-42000514D02*
X152586265Y-42048133D01*
X153586265Y-42762419D02*
X153586265Y-41762419D01*
X153681503Y-42381466D02*
X153967217Y-42762419D01*
X153967217Y-42095752D02*
X153586265Y-42476704D01*
X120671027Y-83952419D02*
X121242455Y-83952419D01*
X120956741Y-84952419D02*
X120956741Y-83952419D01*
X122147217Y-84952419D02*
X121813884Y-84476228D01*
X121575789Y-84952419D02*
X121575789Y-83952419D01*
X121575789Y-83952419D02*
X121956741Y-83952419D01*
X121956741Y-83952419D02*
X122051979Y-84000038D01*
X122051979Y-84000038D02*
X122099598Y-84047657D01*
X122099598Y-84047657D02*
X122147217Y-84142895D01*
X122147217Y-84142895D02*
X122147217Y-84285752D01*
X122147217Y-84285752D02*
X122099598Y-84380990D01*
X122099598Y-84380990D02*
X122051979Y-84428609D01*
X122051979Y-84428609D02*
X121956741Y-84476228D01*
X121956741Y-84476228D02*
X121575789Y-84476228D01*
X122575789Y-84952419D02*
X122575789Y-83952419D01*
X123575788Y-84000038D02*
X123480550Y-83952419D01*
X123480550Y-83952419D02*
X123337693Y-83952419D01*
X123337693Y-83952419D02*
X123194836Y-84000038D01*
X123194836Y-84000038D02*
X123099598Y-84095276D01*
X123099598Y-84095276D02*
X123051979Y-84190514D01*
X123051979Y-84190514D02*
X123004360Y-84380990D01*
X123004360Y-84380990D02*
X123004360Y-84523847D01*
X123004360Y-84523847D02*
X123051979Y-84714323D01*
X123051979Y-84714323D02*
X123099598Y-84809561D01*
X123099598Y-84809561D02*
X123194836Y-84904800D01*
X123194836Y-84904800D02*
X123337693Y-84952419D01*
X123337693Y-84952419D02*
X123432931Y-84952419D01*
X123432931Y-84952419D02*
X123575788Y-84904800D01*
X123575788Y-84904800D02*
X123623407Y-84857180D01*
X123623407Y-84857180D02*
X123623407Y-84523847D01*
X123623407Y-84523847D02*
X123432931Y-84523847D01*
X124575788Y-84000038D02*
X124480550Y-83952419D01*
X124480550Y-83952419D02*
X124337693Y-83952419D01*
X124337693Y-83952419D02*
X124194836Y-84000038D01*
X124194836Y-84000038D02*
X124099598Y-84095276D01*
X124099598Y-84095276D02*
X124051979Y-84190514D01*
X124051979Y-84190514D02*
X124004360Y-84380990D01*
X124004360Y-84380990D02*
X124004360Y-84523847D01*
X124004360Y-84523847D02*
X124051979Y-84714323D01*
X124051979Y-84714323D02*
X124099598Y-84809561D01*
X124099598Y-84809561D02*
X124194836Y-84904800D01*
X124194836Y-84904800D02*
X124337693Y-84952419D01*
X124337693Y-84952419D02*
X124432931Y-84952419D01*
X124432931Y-84952419D02*
X124575788Y-84904800D01*
X124575788Y-84904800D02*
X124623407Y-84857180D01*
X124623407Y-84857180D02*
X124623407Y-84523847D01*
X124623407Y-84523847D02*
X124432931Y-84523847D01*
X125051979Y-84428609D02*
X125385312Y-84428609D01*
X125528169Y-84952419D02*
X125051979Y-84952419D01*
X125051979Y-84952419D02*
X125051979Y-83952419D01*
X125051979Y-83952419D02*
X125528169Y-83952419D01*
X126528169Y-84952419D02*
X126194836Y-84476228D01*
X125956741Y-84952419D02*
X125956741Y-83952419D01*
X125956741Y-83952419D02*
X126337693Y-83952419D01*
X126337693Y-83952419D02*
X126432931Y-84000038D01*
X126432931Y-84000038D02*
X126480550Y-84047657D01*
X126480550Y-84047657D02*
X126528169Y-84142895D01*
X126528169Y-84142895D02*
X126528169Y-84285752D01*
X126528169Y-84285752D02*
X126480550Y-84380990D01*
X126480550Y-84380990D02*
X126432931Y-84428609D01*
X126432931Y-84428609D02*
X126337693Y-84476228D01*
X126337693Y-84476228D02*
X125956741Y-84476228D01*
X127671027Y-84904800D02*
X127813884Y-84952419D01*
X127813884Y-84952419D02*
X128051979Y-84952419D01*
X128051979Y-84952419D02*
X128147217Y-84904800D01*
X128147217Y-84904800D02*
X128194836Y-84857180D01*
X128194836Y-84857180D02*
X128242455Y-84761942D01*
X128242455Y-84761942D02*
X128242455Y-84666704D01*
X128242455Y-84666704D02*
X128194836Y-84571466D01*
X128194836Y-84571466D02*
X128147217Y-84523847D01*
X128147217Y-84523847D02*
X128051979Y-84476228D01*
X128051979Y-84476228D02*
X127861503Y-84428609D01*
X127861503Y-84428609D02*
X127766265Y-84380990D01*
X127766265Y-84380990D02*
X127718646Y-84333371D01*
X127718646Y-84333371D02*
X127671027Y-84238133D01*
X127671027Y-84238133D02*
X127671027Y-84142895D01*
X127671027Y-84142895D02*
X127718646Y-84047657D01*
X127718646Y-84047657D02*
X127766265Y-84000038D01*
X127766265Y-84000038D02*
X127861503Y-83952419D01*
X127861503Y-83952419D02*
X128099598Y-83952419D01*
X128099598Y-83952419D02*
X128242455Y-84000038D01*
X128575789Y-83952419D02*
X128813884Y-84952419D01*
X128813884Y-84952419D02*
X129004360Y-84238133D01*
X129004360Y-84238133D02*
X129194836Y-84952419D01*
X129194836Y-84952419D02*
X129432932Y-83952419D01*
X95875200Y-55196265D02*
X95827580Y-55339122D01*
X95827580Y-55339122D02*
X95827580Y-55577217D01*
X95827580Y-55577217D02*
X95875200Y-55672455D01*
X95875200Y-55672455D02*
X95922819Y-55720074D01*
X95922819Y-55720074D02*
X96018057Y-55767693D01*
X96018057Y-55767693D02*
X96113295Y-55767693D01*
X96113295Y-55767693D02*
X96208533Y-55720074D01*
X96208533Y-55720074D02*
X96256152Y-55672455D01*
X96256152Y-55672455D02*
X96303771Y-55577217D01*
X96303771Y-55577217D02*
X96351390Y-55386741D01*
X96351390Y-55386741D02*
X96399009Y-55291503D01*
X96399009Y-55291503D02*
X96446628Y-55243884D01*
X96446628Y-55243884D02*
X96541866Y-55196265D01*
X96541866Y-55196265D02*
X96637104Y-55196265D01*
X96637104Y-55196265D02*
X96732342Y-55243884D01*
X96732342Y-55243884D02*
X96779961Y-55291503D01*
X96779961Y-55291503D02*
X96827580Y-55386741D01*
X96827580Y-55386741D02*
X96827580Y-55624836D01*
X96827580Y-55624836D02*
X96779961Y-55767693D01*
X96827580Y-56101027D02*
X95827580Y-56339122D01*
X95827580Y-56339122D02*
X96541866Y-56529598D01*
X96541866Y-56529598D02*
X95827580Y-56720074D01*
X95827580Y-56720074D02*
X96827580Y-56958170D01*
X95922819Y-58672455D02*
X95875200Y-58624836D01*
X95875200Y-58624836D02*
X95827580Y-58481979D01*
X95827580Y-58481979D02*
X95827580Y-58386741D01*
X95827580Y-58386741D02*
X95875200Y-58243884D01*
X95875200Y-58243884D02*
X95970438Y-58148646D01*
X95970438Y-58148646D02*
X96065676Y-58101027D01*
X96065676Y-58101027D02*
X96256152Y-58053408D01*
X96256152Y-58053408D02*
X96399009Y-58053408D01*
X96399009Y-58053408D02*
X96589485Y-58101027D01*
X96589485Y-58101027D02*
X96684723Y-58148646D01*
X96684723Y-58148646D02*
X96779961Y-58243884D01*
X96779961Y-58243884D02*
X96827580Y-58386741D01*
X96827580Y-58386741D02*
X96827580Y-58481979D01*
X96827580Y-58481979D02*
X96779961Y-58624836D01*
X96779961Y-58624836D02*
X96732342Y-58672455D01*
X96827580Y-59291503D02*
X96827580Y-59481979D01*
X96827580Y-59481979D02*
X96779961Y-59577217D01*
X96779961Y-59577217D02*
X96684723Y-59672455D01*
X96684723Y-59672455D02*
X96494247Y-59720074D01*
X96494247Y-59720074D02*
X96160914Y-59720074D01*
X96160914Y-59720074D02*
X95970438Y-59672455D01*
X95970438Y-59672455D02*
X95875200Y-59577217D01*
X95875200Y-59577217D02*
X95827580Y-59481979D01*
X95827580Y-59481979D02*
X95827580Y-59291503D01*
X95827580Y-59291503D02*
X95875200Y-59196265D01*
X95875200Y-59196265D02*
X95970438Y-59101027D01*
X95970438Y-59101027D02*
X96160914Y-59053408D01*
X96160914Y-59053408D02*
X96494247Y-59053408D01*
X96494247Y-59053408D02*
X96684723Y-59101027D01*
X96684723Y-59101027D02*
X96779961Y-59196265D01*
X96779961Y-59196265D02*
X96827580Y-59291503D01*
X95827580Y-60148646D02*
X96827580Y-60148646D01*
X96827580Y-60148646D02*
X95827580Y-60720074D01*
X95827580Y-60720074D02*
X96827580Y-60720074D01*
X143827580Y-78351503D02*
X144827580Y-78351503D01*
X144827580Y-79018169D02*
X144827580Y-79208645D01*
X144827580Y-79208645D02*
X144779961Y-79303883D01*
X144779961Y-79303883D02*
X144684723Y-79399121D01*
X144684723Y-79399121D02*
X144494247Y-79446740D01*
X144494247Y-79446740D02*
X144160914Y-79446740D01*
X144160914Y-79446740D02*
X143970438Y-79399121D01*
X143970438Y-79399121D02*
X143875200Y-79303883D01*
X143875200Y-79303883D02*
X143827580Y-79208645D01*
X143827580Y-79208645D02*
X143827580Y-79018169D01*
X143827580Y-79018169D02*
X143875200Y-78922931D01*
X143875200Y-78922931D02*
X143970438Y-78827693D01*
X143970438Y-78827693D02*
X144160914Y-78780074D01*
X144160914Y-78780074D02*
X144494247Y-78780074D01*
X144494247Y-78780074D02*
X144684723Y-78827693D01*
X144684723Y-78827693D02*
X144779961Y-78922931D01*
X144779961Y-78922931D02*
X144827580Y-79018169D01*
X143827580Y-80399121D02*
X143827580Y-79827693D01*
X143827580Y-80113407D02*
X144827580Y-80113407D01*
X144827580Y-80113407D02*
X144684723Y-80018169D01*
X144684723Y-80018169D02*
X144589485Y-79922931D01*
X144589485Y-79922931D02*
X144541866Y-79827693D01*
X144494247Y-81256264D02*
X143827580Y-81256264D01*
X144875200Y-81018169D02*
X144160914Y-80780074D01*
X144160914Y-80780074D02*
X144160914Y-81399121D01*
X140577217Y-41848609D02*
X140243884Y-41848609D01*
X140243884Y-42372419D02*
X140243884Y-41372419D01*
X140243884Y-41372419D02*
X140720074Y-41372419D01*
X141577217Y-42372419D02*
X141101027Y-42372419D01*
X141101027Y-42372419D02*
X141101027Y-41372419D01*
X141862932Y-42086704D02*
X142339122Y-42086704D01*
X141767694Y-42372419D02*
X142101027Y-41372419D01*
X142101027Y-41372419D02*
X142434360Y-42372419D01*
X142720075Y-42324800D02*
X142862932Y-42372419D01*
X142862932Y-42372419D02*
X143101027Y-42372419D01*
X143101027Y-42372419D02*
X143196265Y-42324800D01*
X143196265Y-42324800D02*
X143243884Y-42277180D01*
X143243884Y-42277180D02*
X143291503Y-42181942D01*
X143291503Y-42181942D02*
X143291503Y-42086704D01*
X143291503Y-42086704D02*
X143243884Y-41991466D01*
X143243884Y-41991466D02*
X143196265Y-41943847D01*
X143196265Y-41943847D02*
X143101027Y-41896228D01*
X143101027Y-41896228D02*
X142910551Y-41848609D01*
X142910551Y-41848609D02*
X142815313Y-41800990D01*
X142815313Y-41800990D02*
X142767694Y-41753371D01*
X142767694Y-41753371D02*
X142720075Y-41658133D01*
X142720075Y-41658133D02*
X142720075Y-41562895D01*
X142720075Y-41562895D02*
X142767694Y-41467657D01*
X142767694Y-41467657D02*
X142815313Y-41420038D01*
X142815313Y-41420038D02*
X142910551Y-41372419D01*
X142910551Y-41372419D02*
X143148646Y-41372419D01*
X143148646Y-41372419D02*
X143291503Y-41420038D01*
X143720075Y-42372419D02*
X143720075Y-41372419D01*
X143720075Y-41848609D02*
X144291503Y-41848609D01*
X144291503Y-42372419D02*
X144291503Y-41372419D01*
X151627580Y-79303884D02*
X152627580Y-79303884D01*
X152627580Y-79970550D02*
X152627580Y-80161026D01*
X152627580Y-80161026D02*
X152579961Y-80256264D01*
X152579961Y-80256264D02*
X152484723Y-80351502D01*
X152484723Y-80351502D02*
X152294247Y-80399121D01*
X152294247Y-80399121D02*
X151960914Y-80399121D01*
X151960914Y-80399121D02*
X151770438Y-80351502D01*
X151770438Y-80351502D02*
X151675200Y-80256264D01*
X151675200Y-80256264D02*
X151627580Y-80161026D01*
X151627580Y-80161026D02*
X151627580Y-79970550D01*
X151627580Y-79970550D02*
X151675200Y-79875312D01*
X151675200Y-79875312D02*
X151770438Y-79780074D01*
X151770438Y-79780074D02*
X151960914Y-79732455D01*
X151960914Y-79732455D02*
X152294247Y-79732455D01*
X152294247Y-79732455D02*
X152484723Y-79780074D01*
X152484723Y-79780074D02*
X152579961Y-79875312D01*
X152579961Y-79875312D02*
X152627580Y-79970550D01*
X152627580Y-81303883D02*
X152627580Y-80827693D01*
X152627580Y-80827693D02*
X152151390Y-80780074D01*
X152151390Y-80780074D02*
X152199009Y-80827693D01*
X152199009Y-80827693D02*
X152246628Y-80922931D01*
X152246628Y-80922931D02*
X152246628Y-81161026D01*
X152246628Y-81161026D02*
X152199009Y-81256264D01*
X152199009Y-81256264D02*
X152151390Y-81303883D01*
X152151390Y-81303883D02*
X152056152Y-81351502D01*
X152056152Y-81351502D02*
X151818057Y-81351502D01*
X151818057Y-81351502D02*
X151722819Y-81303883D01*
X151722819Y-81303883D02*
X151675200Y-81256264D01*
X151675200Y-81256264D02*
X151627580Y-81161026D01*
X151627580Y-81161026D02*
X151627580Y-80922931D01*
X151627580Y-80922931D02*
X151675200Y-80827693D01*
X151675200Y-80827693D02*
X151722819Y-80780074D01*
X160194360Y-68372419D02*
X160384836Y-68372419D01*
X160384836Y-68372419D02*
X160480074Y-68420038D01*
X160480074Y-68420038D02*
X160575312Y-68515276D01*
X160575312Y-68515276D02*
X160622931Y-68705752D01*
X160622931Y-68705752D02*
X160622931Y-69039085D01*
X160622931Y-69039085D02*
X160575312Y-69229561D01*
X160575312Y-69229561D02*
X160480074Y-69324800D01*
X160480074Y-69324800D02*
X160384836Y-69372419D01*
X160384836Y-69372419D02*
X160194360Y-69372419D01*
X160194360Y-69372419D02*
X160099122Y-69324800D01*
X160099122Y-69324800D02*
X160003884Y-69229561D01*
X160003884Y-69229561D02*
X159956265Y-69039085D01*
X159956265Y-69039085D02*
X159956265Y-68705752D01*
X159956265Y-68705752D02*
X160003884Y-68515276D01*
X160003884Y-68515276D02*
X160099122Y-68420038D01*
X160099122Y-68420038D02*
X160194360Y-68372419D01*
X161384836Y-68848609D02*
X161051503Y-68848609D01*
X161051503Y-69372419D02*
X161051503Y-68372419D01*
X161051503Y-68372419D02*
X161527693Y-68372419D01*
X162241979Y-68848609D02*
X161908646Y-68848609D01*
X161908646Y-69372419D02*
X161908646Y-68372419D01*
X161908646Y-68372419D02*
X162384836Y-68372419D01*
X163718170Y-68372419D02*
X163908646Y-68372419D01*
X163908646Y-68372419D02*
X164003884Y-68420038D01*
X164003884Y-68420038D02*
X164099122Y-68515276D01*
X164099122Y-68515276D02*
X164146741Y-68705752D01*
X164146741Y-68705752D02*
X164146741Y-69039085D01*
X164146741Y-69039085D02*
X164099122Y-69229561D01*
X164099122Y-69229561D02*
X164003884Y-69324800D01*
X164003884Y-69324800D02*
X163908646Y-69372419D01*
X163908646Y-69372419D02*
X163718170Y-69372419D01*
X163718170Y-69372419D02*
X163622932Y-69324800D01*
X163622932Y-69324800D02*
X163527694Y-69229561D01*
X163527694Y-69229561D02*
X163480075Y-69039085D01*
X163480075Y-69039085D02*
X163480075Y-68705752D01*
X163480075Y-68705752D02*
X163527694Y-68515276D01*
X163527694Y-68515276D02*
X163622932Y-68420038D01*
X163622932Y-68420038D02*
X163718170Y-68372419D01*
X164575313Y-69372419D02*
X164575313Y-68372419D01*
X164575313Y-68372419D02*
X165146741Y-69372419D01*
X165146741Y-69372419D02*
X165146741Y-68372419D01*
X127687693Y-68002419D02*
X127116265Y-68002419D01*
X127401979Y-68002419D02*
X127401979Y-67002419D01*
X127401979Y-67002419D02*
X127306741Y-67145276D01*
X127306741Y-67145276D02*
X127211503Y-67240514D01*
X127211503Y-67240514D02*
X127116265Y-67288133D01*
X128306741Y-67002419D02*
X128401979Y-67002419D01*
X128401979Y-67002419D02*
X128497217Y-67050038D01*
X128497217Y-67050038D02*
X128544836Y-67097657D01*
X128544836Y-67097657D02*
X128592455Y-67192895D01*
X128592455Y-67192895D02*
X128640074Y-67383371D01*
X128640074Y-67383371D02*
X128640074Y-67621466D01*
X128640074Y-67621466D02*
X128592455Y-67811942D01*
X128592455Y-67811942D02*
X128544836Y-67907180D01*
X128544836Y-67907180D02*
X128497217Y-67954800D01*
X128497217Y-67954800D02*
X128401979Y-68002419D01*
X128401979Y-68002419D02*
X128306741Y-68002419D01*
X128306741Y-68002419D02*
X128211503Y-67954800D01*
X128211503Y-67954800D02*
X128163884Y-67907180D01*
X128163884Y-67907180D02*
X128116265Y-67811942D01*
X128116265Y-67811942D02*
X128068646Y-67621466D01*
X128068646Y-67621466D02*
X128068646Y-67383371D01*
X128068646Y-67383371D02*
X128116265Y-67192895D01*
X128116265Y-67192895D02*
X128163884Y-67097657D01*
X128163884Y-67097657D02*
X128211503Y-67050038D01*
X128211503Y-67050038D02*
X128306741Y-67002419D01*
X129068646Y-68002419D02*
X129068646Y-67002419D01*
X129163884Y-67621466D02*
X129449598Y-68002419D01*
X129449598Y-67335752D02*
X129068646Y-67716704D01*
X108168646Y-71411919D02*
X108787693Y-71411919D01*
X108787693Y-71411919D02*
X108454360Y-71792871D01*
X108454360Y-71792871D02*
X108597217Y-71792871D01*
X108597217Y-71792871D02*
X108692455Y-71840490D01*
X108692455Y-71840490D02*
X108740074Y-71888109D01*
X108740074Y-71888109D02*
X108787693Y-71983347D01*
X108787693Y-71983347D02*
X108787693Y-72221442D01*
X108787693Y-72221442D02*
X108740074Y-72316680D01*
X108740074Y-72316680D02*
X108692455Y-72364300D01*
X108692455Y-72364300D02*
X108597217Y-72411919D01*
X108597217Y-72411919D02*
X108311503Y-72411919D01*
X108311503Y-72411919D02*
X108216265Y-72364300D01*
X108216265Y-72364300D02*
X108168646Y-72316680D01*
X109121027Y-71411919D02*
X109740074Y-71411919D01*
X109740074Y-71411919D02*
X109406741Y-71792871D01*
X109406741Y-71792871D02*
X109549598Y-71792871D01*
X109549598Y-71792871D02*
X109644836Y-71840490D01*
X109644836Y-71840490D02*
X109692455Y-71888109D01*
X109692455Y-71888109D02*
X109740074Y-71983347D01*
X109740074Y-71983347D02*
X109740074Y-72221442D01*
X109740074Y-72221442D02*
X109692455Y-72316680D01*
X109692455Y-72316680D02*
X109644836Y-72364300D01*
X109644836Y-72364300D02*
X109549598Y-72411919D01*
X109549598Y-72411919D02*
X109263884Y-72411919D01*
X109263884Y-72411919D02*
X109168646Y-72364300D01*
X109168646Y-72364300D02*
X109121027Y-72316680D01*
X110359122Y-71411919D02*
X110454360Y-71411919D01*
X110454360Y-71411919D02*
X110549598Y-71459538D01*
X110549598Y-71459538D02*
X110597217Y-71507157D01*
X110597217Y-71507157D02*
X110644836Y-71602395D01*
X110644836Y-71602395D02*
X110692455Y-71792871D01*
X110692455Y-71792871D02*
X110692455Y-72030966D01*
X110692455Y-72030966D02*
X110644836Y-72221442D01*
X110644836Y-72221442D02*
X110597217Y-72316680D01*
X110597217Y-72316680D02*
X110549598Y-72364300D01*
X110549598Y-72364300D02*
X110454360Y-72411919D01*
X110454360Y-72411919D02*
X110359122Y-72411919D01*
X110359122Y-72411919D02*
X110263884Y-72364300D01*
X110263884Y-72364300D02*
X110216265Y-72316680D01*
X110216265Y-72316680D02*
X110168646Y-72221442D01*
X110168646Y-72221442D02*
X110121027Y-72030966D01*
X110121027Y-72030966D02*
X110121027Y-71792871D01*
X110121027Y-71792871D02*
X110168646Y-71602395D01*
X110168646Y-71602395D02*
X110216265Y-71507157D01*
X110216265Y-71507157D02*
X110263884Y-71459538D01*
X110263884Y-71459538D02*
X110359122Y-71411919D01*
X164272419Y-59196115D02*
X163272419Y-59196115D01*
X163272419Y-59196115D02*
X163986704Y-58862782D01*
X163986704Y-58862782D02*
X163272419Y-58529449D01*
X163272419Y-58529449D02*
X164272419Y-58529449D01*
X164272419Y-58053258D02*
X163272419Y-58053258D01*
X164177180Y-57005640D02*
X164224800Y-57053259D01*
X164224800Y-57053259D02*
X164272419Y-57196116D01*
X164272419Y-57196116D02*
X164272419Y-57291354D01*
X164272419Y-57291354D02*
X164224800Y-57434211D01*
X164224800Y-57434211D02*
X164129561Y-57529449D01*
X164129561Y-57529449D02*
X164034323Y-57577068D01*
X164034323Y-57577068D02*
X163843847Y-57624687D01*
X163843847Y-57624687D02*
X163700990Y-57624687D01*
X163700990Y-57624687D02*
X163510514Y-57577068D01*
X163510514Y-57577068D02*
X163415276Y-57529449D01*
X163415276Y-57529449D02*
X163320038Y-57434211D01*
X163320038Y-57434211D02*
X163272419Y-57291354D01*
X163272419Y-57291354D02*
X163272419Y-57196116D01*
X163272419Y-57196116D02*
X163320038Y-57053259D01*
X163320038Y-57053259D02*
X163367657Y-57005640D01*
X164272419Y-56005640D02*
X163796228Y-56338973D01*
X164272419Y-56577068D02*
X163272419Y-56577068D01*
X163272419Y-56577068D02*
X163272419Y-56196116D01*
X163272419Y-56196116D02*
X163320038Y-56100878D01*
X163320038Y-56100878D02*
X163367657Y-56053259D01*
X163367657Y-56053259D02*
X163462895Y-56005640D01*
X163462895Y-56005640D02*
X163605752Y-56005640D01*
X163605752Y-56005640D02*
X163700990Y-56053259D01*
X163700990Y-56053259D02*
X163748609Y-56100878D01*
X163748609Y-56100878D02*
X163796228Y-56196116D01*
X163796228Y-56196116D02*
X163796228Y-56577068D01*
X163272419Y-55386592D02*
X163272419Y-55196116D01*
X163272419Y-55196116D02*
X163320038Y-55100878D01*
X163320038Y-55100878D02*
X163415276Y-55005640D01*
X163415276Y-55005640D02*
X163605752Y-54958021D01*
X163605752Y-54958021D02*
X163939085Y-54958021D01*
X163939085Y-54958021D02*
X164129561Y-55005640D01*
X164129561Y-55005640D02*
X164224800Y-55100878D01*
X164224800Y-55100878D02*
X164272419Y-55196116D01*
X164272419Y-55196116D02*
X164272419Y-55386592D01*
X164272419Y-55386592D02*
X164224800Y-55481830D01*
X164224800Y-55481830D02*
X164129561Y-55577068D01*
X164129561Y-55577068D02*
X163939085Y-55624687D01*
X163939085Y-55624687D02*
X163605752Y-55624687D01*
X163605752Y-55624687D02*
X163415276Y-55577068D01*
X163415276Y-55577068D02*
X163320038Y-55481830D01*
X163320038Y-55481830D02*
X163272419Y-55386592D01*
X163891466Y-54529449D02*
X163891466Y-53767545D01*
X163748609Y-52958021D02*
X163796228Y-52815164D01*
X163796228Y-52815164D02*
X163843847Y-52767545D01*
X163843847Y-52767545D02*
X163939085Y-52719926D01*
X163939085Y-52719926D02*
X164081942Y-52719926D01*
X164081942Y-52719926D02*
X164177180Y-52767545D01*
X164177180Y-52767545D02*
X164224800Y-52815164D01*
X164224800Y-52815164D02*
X164272419Y-52910402D01*
X164272419Y-52910402D02*
X164272419Y-53291354D01*
X164272419Y-53291354D02*
X163272419Y-53291354D01*
X163272419Y-53291354D02*
X163272419Y-52958021D01*
X163272419Y-52958021D02*
X163320038Y-52862783D01*
X163320038Y-52862783D02*
X163367657Y-52815164D01*
X163367657Y-52815164D02*
X163462895Y-52767545D01*
X163462895Y-52767545D02*
X163558133Y-52767545D01*
X163558133Y-52767545D02*
X163653371Y-52815164D01*
X163653371Y-52815164D02*
X163700990Y-52862783D01*
X163700990Y-52862783D02*
X163748609Y-52958021D01*
X163748609Y-52958021D02*
X163748609Y-53291354D01*
X104875312Y-84952419D02*
X104541979Y-84476228D01*
X104303884Y-84952419D02*
X104303884Y-83952419D01*
X104303884Y-83952419D02*
X104684836Y-83952419D01*
X104684836Y-83952419D02*
X104780074Y-84000038D01*
X104780074Y-84000038D02*
X104827693Y-84047657D01*
X104827693Y-84047657D02*
X104875312Y-84142895D01*
X104875312Y-84142895D02*
X104875312Y-84285752D01*
X104875312Y-84285752D02*
X104827693Y-84380990D01*
X104827693Y-84380990D02*
X104780074Y-84428609D01*
X104780074Y-84428609D02*
X104684836Y-84476228D01*
X104684836Y-84476228D02*
X104303884Y-84476228D01*
X105303884Y-84428609D02*
X105637217Y-84428609D01*
X105780074Y-84952419D02*
X105303884Y-84952419D01*
X105303884Y-84952419D02*
X105303884Y-83952419D01*
X105303884Y-83952419D02*
X105780074Y-83952419D01*
X106208646Y-84952419D02*
X106208646Y-83952419D01*
X106208646Y-83952419D02*
X106446741Y-83952419D01*
X106446741Y-83952419D02*
X106589598Y-84000038D01*
X106589598Y-84000038D02*
X106684836Y-84095276D01*
X106684836Y-84095276D02*
X106732455Y-84190514D01*
X106732455Y-84190514D02*
X106780074Y-84380990D01*
X106780074Y-84380990D02*
X106780074Y-84523847D01*
X106780074Y-84523847D02*
X106732455Y-84714323D01*
X106732455Y-84714323D02*
X106684836Y-84809561D01*
X106684836Y-84809561D02*
X106589598Y-84904800D01*
X106589598Y-84904800D02*
X106446741Y-84952419D01*
X106446741Y-84952419D02*
X106208646Y-84952419D01*
X108446741Y-84952419D02*
X107970551Y-84952419D01*
X107970551Y-84952419D02*
X107970551Y-83952419D01*
X108780075Y-84428609D02*
X109113408Y-84428609D01*
X109256265Y-84952419D02*
X108780075Y-84952419D01*
X108780075Y-84952419D02*
X108780075Y-83952419D01*
X108780075Y-83952419D02*
X109256265Y-83952419D01*
X109684837Y-84952419D02*
X109684837Y-83952419D01*
X109684837Y-83952419D02*
X109922932Y-83952419D01*
X109922932Y-83952419D02*
X110065789Y-84000038D01*
X110065789Y-84000038D02*
X110161027Y-84095276D01*
X110161027Y-84095276D02*
X110208646Y-84190514D01*
X110208646Y-84190514D02*
X110256265Y-84380990D01*
X110256265Y-84380990D02*
X110256265Y-84523847D01*
X110256265Y-84523847D02*
X110208646Y-84714323D01*
X110208646Y-84714323D02*
X110161027Y-84809561D01*
X110161027Y-84809561D02*
X110065789Y-84904800D01*
X110065789Y-84904800D02*
X109922932Y-84952419D01*
X109922932Y-84952419D02*
X109684837Y-84952419D01*
X139213295Y-78875312D02*
X139213295Y-79351502D01*
X138927580Y-78780074D02*
X139927580Y-79113407D01*
X139927580Y-79113407D02*
X138927580Y-79446740D01*
X138927580Y-79780074D02*
X139927580Y-79780074D01*
X139927580Y-79780074D02*
X139927580Y-80018169D01*
X139927580Y-80018169D02*
X139879961Y-80161026D01*
X139879961Y-80161026D02*
X139784723Y-80256264D01*
X139784723Y-80256264D02*
X139689485Y-80303883D01*
X139689485Y-80303883D02*
X139499009Y-80351502D01*
X139499009Y-80351502D02*
X139356152Y-80351502D01*
X139356152Y-80351502D02*
X139165676Y-80303883D01*
X139165676Y-80303883D02*
X139070438Y-80256264D01*
X139070438Y-80256264D02*
X138975200Y-80161026D01*
X138975200Y-80161026D02*
X138927580Y-80018169D01*
X138927580Y-80018169D02*
X138927580Y-79780074D01*
X139022819Y-81351502D02*
X138975200Y-81303883D01*
X138975200Y-81303883D02*
X138927580Y-81161026D01*
X138927580Y-81161026D02*
X138927580Y-81065788D01*
X138927580Y-81065788D02*
X138975200Y-80922931D01*
X138975200Y-80922931D02*
X139070438Y-80827693D01*
X139070438Y-80827693D02*
X139165676Y-80780074D01*
X139165676Y-80780074D02*
X139356152Y-80732455D01*
X139356152Y-80732455D02*
X139499009Y-80732455D01*
X139499009Y-80732455D02*
X139689485Y-80780074D01*
X139689485Y-80780074D02*
X139784723Y-80827693D01*
X139784723Y-80827693D02*
X139879961Y-80922931D01*
X139879961Y-80922931D02*
X139927580Y-81065788D01*
X139927580Y-81065788D02*
X139927580Y-81161026D01*
X139927580Y-81161026D02*
X139879961Y-81303883D01*
X139879961Y-81303883D02*
X139832342Y-81351502D01*
X143244360Y-68872419D02*
X143339598Y-68872419D01*
X143339598Y-68872419D02*
X143434836Y-68920038D01*
X143434836Y-68920038D02*
X143482455Y-68967657D01*
X143482455Y-68967657D02*
X143530074Y-69062895D01*
X143530074Y-69062895D02*
X143577693Y-69253371D01*
X143577693Y-69253371D02*
X143577693Y-69491466D01*
X143577693Y-69491466D02*
X143530074Y-69681942D01*
X143530074Y-69681942D02*
X143482455Y-69777180D01*
X143482455Y-69777180D02*
X143434836Y-69824800D01*
X143434836Y-69824800D02*
X143339598Y-69872419D01*
X143339598Y-69872419D02*
X143244360Y-69872419D01*
X143244360Y-69872419D02*
X143149122Y-69824800D01*
X143149122Y-69824800D02*
X143101503Y-69777180D01*
X143101503Y-69777180D02*
X143053884Y-69681942D01*
X143053884Y-69681942D02*
X143006265Y-69491466D01*
X143006265Y-69491466D02*
X143006265Y-69253371D01*
X143006265Y-69253371D02*
X143053884Y-69062895D01*
X143053884Y-69062895D02*
X143101503Y-68967657D01*
X143101503Y-68967657D02*
X143149122Y-68920038D01*
X143149122Y-68920038D02*
X143244360Y-68872419D01*
X144006265Y-69777180D02*
X144053884Y-69824800D01*
X144053884Y-69824800D02*
X144006265Y-69872419D01*
X144006265Y-69872419D02*
X143958646Y-69824800D01*
X143958646Y-69824800D02*
X144006265Y-69777180D01*
X144006265Y-69777180D02*
X144006265Y-69872419D01*
X145006264Y-69872419D02*
X144434836Y-69872419D01*
X144720550Y-69872419D02*
X144720550Y-68872419D01*
X144720550Y-68872419D02*
X144625312Y-69015276D01*
X144625312Y-69015276D02*
X144530074Y-69110514D01*
X144530074Y-69110514D02*
X144434836Y-69158133D01*
X145863407Y-69205752D02*
X145863407Y-69872419D01*
X145434836Y-69205752D02*
X145434836Y-69729561D01*
X145434836Y-69729561D02*
X145482455Y-69824800D01*
X145482455Y-69824800D02*
X145577693Y-69872419D01*
X145577693Y-69872419D02*
X145720550Y-69872419D01*
X145720550Y-69872419D02*
X145815788Y-69824800D01*
X145815788Y-69824800D02*
X145863407Y-69777180D01*
X134779961Y-79256264D02*
X134827580Y-79161026D01*
X134827580Y-79161026D02*
X134827580Y-79018169D01*
X134827580Y-79018169D02*
X134779961Y-78875312D01*
X134779961Y-78875312D02*
X134684723Y-78780074D01*
X134684723Y-78780074D02*
X134589485Y-78732455D01*
X134589485Y-78732455D02*
X134399009Y-78684836D01*
X134399009Y-78684836D02*
X134256152Y-78684836D01*
X134256152Y-78684836D02*
X134065676Y-78732455D01*
X134065676Y-78732455D02*
X133970438Y-78780074D01*
X133970438Y-78780074D02*
X133875200Y-78875312D01*
X133875200Y-78875312D02*
X133827580Y-79018169D01*
X133827580Y-79018169D02*
X133827580Y-79113407D01*
X133827580Y-79113407D02*
X133875200Y-79256264D01*
X133875200Y-79256264D02*
X133922819Y-79303883D01*
X133922819Y-79303883D02*
X134256152Y-79303883D01*
X134256152Y-79303883D02*
X134256152Y-79113407D01*
X133827580Y-79732455D02*
X134827580Y-79732455D01*
X134827580Y-79732455D02*
X133827580Y-80303883D01*
X133827580Y-80303883D02*
X134827580Y-80303883D01*
X133827580Y-80780074D02*
X134827580Y-80780074D01*
X134827580Y-80780074D02*
X134827580Y-81018169D01*
X134827580Y-81018169D02*
X134779961Y-81161026D01*
X134779961Y-81161026D02*
X134684723Y-81256264D01*
X134684723Y-81256264D02*
X134589485Y-81303883D01*
X134589485Y-81303883D02*
X134399009Y-81351502D01*
X134399009Y-81351502D02*
X134256152Y-81351502D01*
X134256152Y-81351502D02*
X134065676Y-81303883D01*
X134065676Y-81303883D02*
X133970438Y-81256264D01*
X133970438Y-81256264D02*
X133875200Y-81161026D01*
X133875200Y-81161026D02*
X133827580Y-81018169D01*
X133827580Y-81018169D02*
X133827580Y-80780074D01*
X149027580Y-78351503D02*
X150027580Y-78351503D01*
X150027580Y-79018169D02*
X150027580Y-79208645D01*
X150027580Y-79208645D02*
X149979961Y-79303883D01*
X149979961Y-79303883D02*
X149884723Y-79399121D01*
X149884723Y-79399121D02*
X149694247Y-79446740D01*
X149694247Y-79446740D02*
X149360914Y-79446740D01*
X149360914Y-79446740D02*
X149170438Y-79399121D01*
X149170438Y-79399121D02*
X149075200Y-79303883D01*
X149075200Y-79303883D02*
X149027580Y-79208645D01*
X149027580Y-79208645D02*
X149027580Y-79018169D01*
X149027580Y-79018169D02*
X149075200Y-78922931D01*
X149075200Y-78922931D02*
X149170438Y-78827693D01*
X149170438Y-78827693D02*
X149360914Y-78780074D01*
X149360914Y-78780074D02*
X149694247Y-78780074D01*
X149694247Y-78780074D02*
X149884723Y-78827693D01*
X149884723Y-78827693D02*
X149979961Y-78922931D01*
X149979961Y-78922931D02*
X150027580Y-79018169D01*
X149027580Y-80399121D02*
X149027580Y-79827693D01*
X149027580Y-80113407D02*
X150027580Y-80113407D01*
X150027580Y-80113407D02*
X149884723Y-80018169D01*
X149884723Y-80018169D02*
X149789485Y-79922931D01*
X149789485Y-79922931D02*
X149741866Y-79827693D01*
X149932342Y-80780074D02*
X149979961Y-80827693D01*
X149979961Y-80827693D02*
X150027580Y-80922931D01*
X150027580Y-80922931D02*
X150027580Y-81161026D01*
X150027580Y-81161026D02*
X149979961Y-81256264D01*
X149979961Y-81256264D02*
X149932342Y-81303883D01*
X149932342Y-81303883D02*
X149837104Y-81351502D01*
X149837104Y-81351502D02*
X149741866Y-81351502D01*
X149741866Y-81351502D02*
X149599009Y-81303883D01*
X149599009Y-81303883D02*
X149027580Y-80732455D01*
X149027580Y-80732455D02*
X149027580Y-81351502D01*
X136708533Y-77303884D02*
X136708533Y-78065789D01*
X136327580Y-77684836D02*
X137089485Y-77684836D01*
X137327580Y-78446741D02*
X137327580Y-79065788D01*
X137327580Y-79065788D02*
X136946628Y-78732455D01*
X136946628Y-78732455D02*
X136946628Y-78875312D01*
X136946628Y-78875312D02*
X136899009Y-78970550D01*
X136899009Y-78970550D02*
X136851390Y-79018169D01*
X136851390Y-79018169D02*
X136756152Y-79065788D01*
X136756152Y-79065788D02*
X136518057Y-79065788D01*
X136518057Y-79065788D02*
X136422819Y-79018169D01*
X136422819Y-79018169D02*
X136375200Y-78970550D01*
X136375200Y-78970550D02*
X136327580Y-78875312D01*
X136327580Y-78875312D02*
X136327580Y-78589598D01*
X136327580Y-78589598D02*
X136375200Y-78494360D01*
X136375200Y-78494360D02*
X136422819Y-78446741D01*
X136422819Y-79494360D02*
X136375200Y-79541979D01*
X136375200Y-79541979D02*
X136327580Y-79494360D01*
X136327580Y-79494360D02*
X136375200Y-79446741D01*
X136375200Y-79446741D02*
X136422819Y-79494360D01*
X136422819Y-79494360D02*
X136327580Y-79494360D01*
X137327580Y-79875312D02*
X137327580Y-80494359D01*
X137327580Y-80494359D02*
X136946628Y-80161026D01*
X136946628Y-80161026D02*
X136946628Y-80303883D01*
X136946628Y-80303883D02*
X136899009Y-80399121D01*
X136899009Y-80399121D02*
X136851390Y-80446740D01*
X136851390Y-80446740D02*
X136756152Y-80494359D01*
X136756152Y-80494359D02*
X136518057Y-80494359D01*
X136518057Y-80494359D02*
X136422819Y-80446740D01*
X136422819Y-80446740D02*
X136375200Y-80399121D01*
X136375200Y-80399121D02*
X136327580Y-80303883D01*
X136327580Y-80303883D02*
X136327580Y-80018169D01*
X136327580Y-80018169D02*
X136375200Y-79922931D01*
X136375200Y-79922931D02*
X136422819Y-79875312D01*
X137327580Y-80780074D02*
X136327580Y-81113407D01*
X136327580Y-81113407D02*
X137327580Y-81446740D01*
X141527580Y-78351503D02*
X142527580Y-78351503D01*
X142527580Y-79018169D02*
X142527580Y-79208645D01*
X142527580Y-79208645D02*
X142479961Y-79303883D01*
X142479961Y-79303883D02*
X142384723Y-79399121D01*
X142384723Y-79399121D02*
X142194247Y-79446740D01*
X142194247Y-79446740D02*
X141860914Y-79446740D01*
X141860914Y-79446740D02*
X141670438Y-79399121D01*
X141670438Y-79399121D02*
X141575200Y-79303883D01*
X141575200Y-79303883D02*
X141527580Y-79208645D01*
X141527580Y-79208645D02*
X141527580Y-79018169D01*
X141527580Y-79018169D02*
X141575200Y-78922931D01*
X141575200Y-78922931D02*
X141670438Y-78827693D01*
X141670438Y-78827693D02*
X141860914Y-78780074D01*
X141860914Y-78780074D02*
X142194247Y-78780074D01*
X142194247Y-78780074D02*
X142384723Y-78827693D01*
X142384723Y-78827693D02*
X142479961Y-78922931D01*
X142479961Y-78922931D02*
X142527580Y-79018169D01*
X141527580Y-80399121D02*
X141527580Y-79827693D01*
X141527580Y-80113407D02*
X142527580Y-80113407D01*
X142527580Y-80113407D02*
X142384723Y-80018169D01*
X142384723Y-80018169D02*
X142289485Y-79922931D01*
X142289485Y-79922931D02*
X142241866Y-79827693D01*
X142527580Y-81256264D02*
X142527580Y-81065788D01*
X142527580Y-81065788D02*
X142479961Y-80970550D01*
X142479961Y-80970550D02*
X142432342Y-80922931D01*
X142432342Y-80922931D02*
X142289485Y-80827693D01*
X142289485Y-80827693D02*
X142099009Y-80780074D01*
X142099009Y-80780074D02*
X141718057Y-80780074D01*
X141718057Y-80780074D02*
X141622819Y-80827693D01*
X141622819Y-80827693D02*
X141575200Y-80875312D01*
X141575200Y-80875312D02*
X141527580Y-80970550D01*
X141527580Y-80970550D02*
X141527580Y-81161026D01*
X141527580Y-81161026D02*
X141575200Y-81256264D01*
X141575200Y-81256264D02*
X141622819Y-81303883D01*
X141622819Y-81303883D02*
X141718057Y-81351502D01*
X141718057Y-81351502D02*
X141956152Y-81351502D01*
X141956152Y-81351502D02*
X142051390Y-81303883D01*
X142051390Y-81303883D02*
X142099009Y-81256264D01*
X142099009Y-81256264D02*
X142146628Y-81161026D01*
X142146628Y-81161026D02*
X142146628Y-80970550D01*
X142146628Y-80970550D02*
X142099009Y-80875312D01*
X142099009Y-80875312D02*
X142051390Y-80827693D01*
X142051390Y-80827693D02*
X141956152Y-80780074D01*
X153627580Y-79303884D02*
X154627580Y-79303884D01*
X154627580Y-79970550D02*
X154627580Y-80161026D01*
X154627580Y-80161026D02*
X154579961Y-80256264D01*
X154579961Y-80256264D02*
X154484723Y-80351502D01*
X154484723Y-80351502D02*
X154294247Y-80399121D01*
X154294247Y-80399121D02*
X153960914Y-80399121D01*
X153960914Y-80399121D02*
X153770438Y-80351502D01*
X153770438Y-80351502D02*
X153675200Y-80256264D01*
X153675200Y-80256264D02*
X153627580Y-80161026D01*
X153627580Y-80161026D02*
X153627580Y-79970550D01*
X153627580Y-79970550D02*
X153675200Y-79875312D01*
X153675200Y-79875312D02*
X153770438Y-79780074D01*
X153770438Y-79780074D02*
X153960914Y-79732455D01*
X153960914Y-79732455D02*
X154294247Y-79732455D01*
X154294247Y-79732455D02*
X154484723Y-79780074D01*
X154484723Y-79780074D02*
X154579961Y-79875312D01*
X154579961Y-79875312D02*
X154627580Y-79970550D01*
X154294247Y-81256264D02*
X153627580Y-81256264D01*
X154675200Y-81018169D02*
X153960914Y-80780074D01*
X153960914Y-80780074D02*
X153960914Y-81399121D01*
X136444360Y-68772419D02*
X136539598Y-68772419D01*
X136539598Y-68772419D02*
X136634836Y-68820038D01*
X136634836Y-68820038D02*
X136682455Y-68867657D01*
X136682455Y-68867657D02*
X136730074Y-68962895D01*
X136730074Y-68962895D02*
X136777693Y-69153371D01*
X136777693Y-69153371D02*
X136777693Y-69391466D01*
X136777693Y-69391466D02*
X136730074Y-69581942D01*
X136730074Y-69581942D02*
X136682455Y-69677180D01*
X136682455Y-69677180D02*
X136634836Y-69724800D01*
X136634836Y-69724800D02*
X136539598Y-69772419D01*
X136539598Y-69772419D02*
X136444360Y-69772419D01*
X136444360Y-69772419D02*
X136349122Y-69724800D01*
X136349122Y-69724800D02*
X136301503Y-69677180D01*
X136301503Y-69677180D02*
X136253884Y-69581942D01*
X136253884Y-69581942D02*
X136206265Y-69391466D01*
X136206265Y-69391466D02*
X136206265Y-69153371D01*
X136206265Y-69153371D02*
X136253884Y-68962895D01*
X136253884Y-68962895D02*
X136301503Y-68867657D01*
X136301503Y-68867657D02*
X136349122Y-68820038D01*
X136349122Y-68820038D02*
X136444360Y-68772419D01*
X137206265Y-69677180D02*
X137253884Y-69724800D01*
X137253884Y-69724800D02*
X137206265Y-69772419D01*
X137206265Y-69772419D02*
X137158646Y-69724800D01*
X137158646Y-69724800D02*
X137206265Y-69677180D01*
X137206265Y-69677180D02*
X137206265Y-69772419D01*
X138206264Y-69772419D02*
X137634836Y-69772419D01*
X137920550Y-69772419D02*
X137920550Y-68772419D01*
X137920550Y-68772419D02*
X137825312Y-68915276D01*
X137825312Y-68915276D02*
X137730074Y-69010514D01*
X137730074Y-69010514D02*
X137634836Y-69058133D01*
X139063407Y-69105752D02*
X139063407Y-69772419D01*
X138634836Y-69105752D02*
X138634836Y-69629561D01*
X138634836Y-69629561D02*
X138682455Y-69724800D01*
X138682455Y-69724800D02*
X138777693Y-69772419D01*
X138777693Y-69772419D02*
X138920550Y-69772419D01*
X138920550Y-69772419D02*
X139015788Y-69724800D01*
X139015788Y-69724800D02*
X139063407Y-69677180D01*
D11*
X117833333Y-70174819D02*
X117500000Y-69698628D01*
X117261905Y-70174819D02*
X117261905Y-69174819D01*
X117261905Y-69174819D02*
X117642857Y-69174819D01*
X117642857Y-69174819D02*
X117738095Y-69222438D01*
X117738095Y-69222438D02*
X117785714Y-69270057D01*
X117785714Y-69270057D02*
X117833333Y-69365295D01*
X117833333Y-69365295D02*
X117833333Y-69508152D01*
X117833333Y-69508152D02*
X117785714Y-69603390D01*
X117785714Y-69603390D02*
X117738095Y-69651009D01*
X117738095Y-69651009D02*
X117642857Y-69698628D01*
X117642857Y-69698628D02*
X117261905Y-69698628D01*
X118690476Y-69508152D02*
X118690476Y-70174819D01*
X118452381Y-69127200D02*
X118214286Y-69841485D01*
X118214286Y-69841485D02*
X118833333Y-69841485D01*
X160461905Y-47254819D02*
X160461905Y-46254819D01*
X160461905Y-46254819D02*
X160700000Y-46254819D01*
X160700000Y-46254819D02*
X160842857Y-46302438D01*
X160842857Y-46302438D02*
X160938095Y-46397676D01*
X160938095Y-46397676D02*
X160985714Y-46492914D01*
X160985714Y-46492914D02*
X161033333Y-46683390D01*
X161033333Y-46683390D02*
X161033333Y-46826247D01*
X161033333Y-46826247D02*
X160985714Y-47016723D01*
X160985714Y-47016723D02*
X160938095Y-47111961D01*
X160938095Y-47111961D02*
X160842857Y-47207200D01*
X160842857Y-47207200D02*
X160700000Y-47254819D01*
X160700000Y-47254819D02*
X160461905Y-47254819D01*
X161366667Y-46254819D02*
X161985714Y-46254819D01*
X161985714Y-46254819D02*
X161652381Y-46635771D01*
X161652381Y-46635771D02*
X161795238Y-46635771D01*
X161795238Y-46635771D02*
X161890476Y-46683390D01*
X161890476Y-46683390D02*
X161938095Y-46731009D01*
X161938095Y-46731009D02*
X161985714Y-46826247D01*
X161985714Y-46826247D02*
X161985714Y-47064342D01*
X161985714Y-47064342D02*
X161938095Y-47159580D01*
X161938095Y-47159580D02*
X161890476Y-47207200D01*
X161890476Y-47207200D02*
X161795238Y-47254819D01*
X161795238Y-47254819D02*
X161509524Y-47254819D01*
X161509524Y-47254819D02*
X161414286Y-47207200D01*
X161414286Y-47207200D02*
X161366667Y-47159580D01*
X156977200Y-67833332D02*
X157024819Y-67690475D01*
X157024819Y-67690475D02*
X157024819Y-67452380D01*
X157024819Y-67452380D02*
X156977200Y-67357142D01*
X156977200Y-67357142D02*
X156929580Y-67309523D01*
X156929580Y-67309523D02*
X156834342Y-67261904D01*
X156834342Y-67261904D02*
X156739104Y-67261904D01*
X156739104Y-67261904D02*
X156643866Y-67309523D01*
X156643866Y-67309523D02*
X156596247Y-67357142D01*
X156596247Y-67357142D02*
X156548628Y-67452380D01*
X156548628Y-67452380D02*
X156501009Y-67642856D01*
X156501009Y-67642856D02*
X156453390Y-67738094D01*
X156453390Y-67738094D02*
X156405771Y-67785713D01*
X156405771Y-67785713D02*
X156310533Y-67833332D01*
X156310533Y-67833332D02*
X156215295Y-67833332D01*
X156215295Y-67833332D02*
X156120057Y-67785713D01*
X156120057Y-67785713D02*
X156072438Y-67738094D01*
X156072438Y-67738094D02*
X156024819Y-67642856D01*
X156024819Y-67642856D02*
X156024819Y-67404761D01*
X156024819Y-67404761D02*
X156072438Y-67261904D01*
X156024819Y-66928570D02*
X157024819Y-66690475D01*
X157024819Y-66690475D02*
X156310533Y-66499999D01*
X156310533Y-66499999D02*
X157024819Y-66309523D01*
X157024819Y-66309523D02*
X156024819Y-66071428D01*
X156358152Y-65261904D02*
X157024819Y-65261904D01*
X155977200Y-65499999D02*
X156691485Y-65738094D01*
X156691485Y-65738094D02*
X156691485Y-65119047D01*
X143733333Y-77059580D02*
X143685714Y-77107200D01*
X143685714Y-77107200D02*
X143542857Y-77154819D01*
X143542857Y-77154819D02*
X143447619Y-77154819D01*
X143447619Y-77154819D02*
X143304762Y-77107200D01*
X143304762Y-77107200D02*
X143209524Y-77011961D01*
X143209524Y-77011961D02*
X143161905Y-76916723D01*
X143161905Y-76916723D02*
X143114286Y-76726247D01*
X143114286Y-76726247D02*
X143114286Y-76583390D01*
X143114286Y-76583390D02*
X143161905Y-76392914D01*
X143161905Y-76392914D02*
X143209524Y-76297676D01*
X143209524Y-76297676D02*
X143304762Y-76202438D01*
X143304762Y-76202438D02*
X143447619Y-76154819D01*
X143447619Y-76154819D02*
X143542857Y-76154819D01*
X143542857Y-76154819D02*
X143685714Y-76202438D01*
X143685714Y-76202438D02*
X143733333Y-76250057D01*
X144638095Y-76154819D02*
X144161905Y-76154819D01*
X144161905Y-76154819D02*
X144114286Y-76631009D01*
X144114286Y-76631009D02*
X144161905Y-76583390D01*
X144161905Y-76583390D02*
X144257143Y-76535771D01*
X144257143Y-76535771D02*
X144495238Y-76535771D01*
X144495238Y-76535771D02*
X144590476Y-76583390D01*
X144590476Y-76583390D02*
X144638095Y-76631009D01*
X144638095Y-76631009D02*
X144685714Y-76726247D01*
X144685714Y-76726247D02*
X144685714Y-76964342D01*
X144685714Y-76964342D02*
X144638095Y-77059580D01*
X144638095Y-77059580D02*
X144590476Y-77107200D01*
X144590476Y-77107200D02*
X144495238Y-77154819D01*
X144495238Y-77154819D02*
X144257143Y-77154819D01*
X144257143Y-77154819D02*
X144161905Y-77107200D01*
X144161905Y-77107200D02*
X144114286Y-77059580D01*
X151459580Y-77471766D02*
X151507200Y-77519385D01*
X151507200Y-77519385D02*
X151554819Y-77662242D01*
X151554819Y-77662242D02*
X151554819Y-77757480D01*
X151554819Y-77757480D02*
X151507200Y-77900337D01*
X151507200Y-77900337D02*
X151411961Y-77995575D01*
X151411961Y-77995575D02*
X151316723Y-78043194D01*
X151316723Y-78043194D02*
X151126247Y-78090813D01*
X151126247Y-78090813D02*
X150983390Y-78090813D01*
X150983390Y-78090813D02*
X150792914Y-78043194D01*
X150792914Y-78043194D02*
X150697676Y-77995575D01*
X150697676Y-77995575D02*
X150602438Y-77900337D01*
X150602438Y-77900337D02*
X150554819Y-77757480D01*
X150554819Y-77757480D02*
X150554819Y-77662242D01*
X150554819Y-77662242D02*
X150602438Y-77519385D01*
X150602438Y-77519385D02*
X150650057Y-77471766D01*
X150554819Y-77138432D02*
X150554819Y-76471766D01*
X150554819Y-76471766D02*
X151554819Y-76900337D01*
X132704819Y-57336666D02*
X132228628Y-57669999D01*
X132704819Y-57908094D02*
X131704819Y-57908094D01*
X131704819Y-57908094D02*
X131704819Y-57527142D01*
X131704819Y-57527142D02*
X131752438Y-57431904D01*
X131752438Y-57431904D02*
X131800057Y-57384285D01*
X131800057Y-57384285D02*
X131895295Y-57336666D01*
X131895295Y-57336666D02*
X132038152Y-57336666D01*
X132038152Y-57336666D02*
X132133390Y-57384285D01*
X132133390Y-57384285D02*
X132181009Y-57431904D01*
X132181009Y-57431904D02*
X132228628Y-57527142D01*
X132228628Y-57527142D02*
X132228628Y-57908094D01*
X132704819Y-56384285D02*
X132704819Y-56955713D01*
X132704819Y-56669999D02*
X131704819Y-56669999D01*
X131704819Y-56669999D02*
X131847676Y-56765237D01*
X131847676Y-56765237D02*
X131942914Y-56860475D01*
X131942914Y-56860475D02*
X131990533Y-56955713D01*
X160124819Y-74901904D02*
X160934342Y-74901904D01*
X160934342Y-74901904D02*
X161029580Y-74854285D01*
X161029580Y-74854285D02*
X161077200Y-74806666D01*
X161077200Y-74806666D02*
X161124819Y-74711428D01*
X161124819Y-74711428D02*
X161124819Y-74520952D01*
X161124819Y-74520952D02*
X161077200Y-74425714D01*
X161077200Y-74425714D02*
X161029580Y-74378095D01*
X161029580Y-74378095D02*
X160934342Y-74330476D01*
X160934342Y-74330476D02*
X160124819Y-74330476D01*
X160124819Y-73949523D02*
X160124819Y-73330476D01*
X160124819Y-73330476D02*
X160505771Y-73663809D01*
X160505771Y-73663809D02*
X160505771Y-73520952D01*
X160505771Y-73520952D02*
X160553390Y-73425714D01*
X160553390Y-73425714D02*
X160601009Y-73378095D01*
X160601009Y-73378095D02*
X160696247Y-73330476D01*
X160696247Y-73330476D02*
X160934342Y-73330476D01*
X160934342Y-73330476D02*
X161029580Y-73378095D01*
X161029580Y-73378095D02*
X161077200Y-73425714D01*
X161077200Y-73425714D02*
X161124819Y-73520952D01*
X161124819Y-73520952D02*
X161124819Y-73806666D01*
X161124819Y-73806666D02*
X161077200Y-73901904D01*
X161077200Y-73901904D02*
X161029580Y-73949523D01*
X126204819Y-57336666D02*
X125728628Y-57669999D01*
X126204819Y-57908094D02*
X125204819Y-57908094D01*
X125204819Y-57908094D02*
X125204819Y-57527142D01*
X125204819Y-57527142D02*
X125252438Y-57431904D01*
X125252438Y-57431904D02*
X125300057Y-57384285D01*
X125300057Y-57384285D02*
X125395295Y-57336666D01*
X125395295Y-57336666D02*
X125538152Y-57336666D01*
X125538152Y-57336666D02*
X125633390Y-57384285D01*
X125633390Y-57384285D02*
X125681009Y-57431904D01*
X125681009Y-57431904D02*
X125728628Y-57527142D01*
X125728628Y-57527142D02*
X125728628Y-57908094D01*
X125300057Y-56955713D02*
X125252438Y-56908094D01*
X125252438Y-56908094D02*
X125204819Y-56812856D01*
X125204819Y-56812856D02*
X125204819Y-56574761D01*
X125204819Y-56574761D02*
X125252438Y-56479523D01*
X125252438Y-56479523D02*
X125300057Y-56431904D01*
X125300057Y-56431904D02*
X125395295Y-56384285D01*
X125395295Y-56384285D02*
X125490533Y-56384285D01*
X125490533Y-56384285D02*
X125633390Y-56431904D01*
X125633390Y-56431904D02*
X126204819Y-57003332D01*
X126204819Y-57003332D02*
X126204819Y-56384285D01*
X148437142Y-45034819D02*
X148103809Y-44558628D01*
X147865714Y-45034819D02*
X147865714Y-44034819D01*
X147865714Y-44034819D02*
X148246666Y-44034819D01*
X148246666Y-44034819D02*
X148341904Y-44082438D01*
X148341904Y-44082438D02*
X148389523Y-44130057D01*
X148389523Y-44130057D02*
X148437142Y-44225295D01*
X148437142Y-44225295D02*
X148437142Y-44368152D01*
X148437142Y-44368152D02*
X148389523Y-44463390D01*
X148389523Y-44463390D02*
X148341904Y-44511009D01*
X148341904Y-44511009D02*
X148246666Y-44558628D01*
X148246666Y-44558628D02*
X147865714Y-44558628D01*
X149389523Y-45034819D02*
X148818095Y-45034819D01*
X149103809Y-45034819D02*
X149103809Y-44034819D01*
X149103809Y-44034819D02*
X149008571Y-44177676D01*
X149008571Y-44177676D02*
X148913333Y-44272914D01*
X148913333Y-44272914D02*
X148818095Y-44320533D01*
X150008571Y-44034819D02*
X150103809Y-44034819D01*
X150103809Y-44034819D02*
X150199047Y-44082438D01*
X150199047Y-44082438D02*
X150246666Y-44130057D01*
X150246666Y-44130057D02*
X150294285Y-44225295D01*
X150294285Y-44225295D02*
X150341904Y-44415771D01*
X150341904Y-44415771D02*
X150341904Y-44653866D01*
X150341904Y-44653866D02*
X150294285Y-44844342D01*
X150294285Y-44844342D02*
X150246666Y-44939580D01*
X150246666Y-44939580D02*
X150199047Y-44987200D01*
X150199047Y-44987200D02*
X150103809Y-45034819D01*
X150103809Y-45034819D02*
X150008571Y-45034819D01*
X150008571Y-45034819D02*
X149913333Y-44987200D01*
X149913333Y-44987200D02*
X149865714Y-44939580D01*
X149865714Y-44939580D02*
X149818095Y-44844342D01*
X149818095Y-44844342D02*
X149770476Y-44653866D01*
X149770476Y-44653866D02*
X149770476Y-44415771D01*
X149770476Y-44415771D02*
X149818095Y-44225295D01*
X149818095Y-44225295D02*
X149865714Y-44130057D01*
X149865714Y-44130057D02*
X149913333Y-44082438D01*
X149913333Y-44082438D02*
X150008571Y-44034819D01*
X109988095Y-48792319D02*
X109988095Y-49601842D01*
X109988095Y-49601842D02*
X110035714Y-49697080D01*
X110035714Y-49697080D02*
X110083333Y-49744700D01*
X110083333Y-49744700D02*
X110178571Y-49792319D01*
X110178571Y-49792319D02*
X110369047Y-49792319D01*
X110369047Y-49792319D02*
X110464285Y-49744700D01*
X110464285Y-49744700D02*
X110511904Y-49697080D01*
X110511904Y-49697080D02*
X110559523Y-49601842D01*
X110559523Y-49601842D02*
X110559523Y-48792319D01*
X111559523Y-49792319D02*
X110988095Y-49792319D01*
X111273809Y-49792319D02*
X111273809Y-48792319D01*
X111273809Y-48792319D02*
X111178571Y-48935176D01*
X111178571Y-48935176D02*
X111083333Y-49030414D01*
X111083333Y-49030414D02*
X110988095Y-49078033D01*
X156504819Y-84083333D02*
X157219104Y-84083333D01*
X157219104Y-84083333D02*
X157361961Y-84130952D01*
X157361961Y-84130952D02*
X157457200Y-84226190D01*
X157457200Y-84226190D02*
X157504819Y-84369047D01*
X157504819Y-84369047D02*
X157504819Y-84464285D01*
X156504819Y-83130952D02*
X156504819Y-83607142D01*
X156504819Y-83607142D02*
X156981009Y-83654761D01*
X156981009Y-83654761D02*
X156933390Y-83607142D01*
X156933390Y-83607142D02*
X156885771Y-83511904D01*
X156885771Y-83511904D02*
X156885771Y-83273809D01*
X156885771Y-83273809D02*
X156933390Y-83178571D01*
X156933390Y-83178571D02*
X156981009Y-83130952D01*
X156981009Y-83130952D02*
X157076247Y-83083333D01*
X157076247Y-83083333D02*
X157314342Y-83083333D01*
X157314342Y-83083333D02*
X157409580Y-83130952D01*
X157409580Y-83130952D02*
X157457200Y-83178571D01*
X157457200Y-83178571D02*
X157504819Y-83273809D01*
X157504819Y-83273809D02*
X157504819Y-83511904D01*
X157504819Y-83511904D02*
X157457200Y-83607142D01*
X157457200Y-83607142D02*
X157409580Y-83654761D01*
X114281905Y-79034819D02*
X114281905Y-78034819D01*
X114281905Y-78034819D02*
X114520000Y-78034819D01*
X114520000Y-78034819D02*
X114662857Y-78082438D01*
X114662857Y-78082438D02*
X114758095Y-78177676D01*
X114758095Y-78177676D02*
X114805714Y-78272914D01*
X114805714Y-78272914D02*
X114853333Y-78463390D01*
X114853333Y-78463390D02*
X114853333Y-78606247D01*
X114853333Y-78606247D02*
X114805714Y-78796723D01*
X114805714Y-78796723D02*
X114758095Y-78891961D01*
X114758095Y-78891961D02*
X114662857Y-78987200D01*
X114662857Y-78987200D02*
X114520000Y-79034819D01*
X114520000Y-79034819D02*
X114281905Y-79034819D01*
X115234286Y-78130057D02*
X115281905Y-78082438D01*
X115281905Y-78082438D02*
X115377143Y-78034819D01*
X115377143Y-78034819D02*
X115615238Y-78034819D01*
X115615238Y-78034819D02*
X115710476Y-78082438D01*
X115710476Y-78082438D02*
X115758095Y-78130057D01*
X115758095Y-78130057D02*
X115805714Y-78225295D01*
X115805714Y-78225295D02*
X115805714Y-78320533D01*
X115805714Y-78320533D02*
X115758095Y-78463390D01*
X115758095Y-78463390D02*
X115186667Y-79034819D01*
X115186667Y-79034819D02*
X115805714Y-79034819D01*
X114733333Y-70274819D02*
X114400000Y-69798628D01*
X114161905Y-70274819D02*
X114161905Y-69274819D01*
X114161905Y-69274819D02*
X114542857Y-69274819D01*
X114542857Y-69274819D02*
X114638095Y-69322438D01*
X114638095Y-69322438D02*
X114685714Y-69370057D01*
X114685714Y-69370057D02*
X114733333Y-69465295D01*
X114733333Y-69465295D02*
X114733333Y-69608152D01*
X114733333Y-69608152D02*
X114685714Y-69703390D01*
X114685714Y-69703390D02*
X114638095Y-69751009D01*
X114638095Y-69751009D02*
X114542857Y-69798628D01*
X114542857Y-69798628D02*
X114161905Y-69798628D01*
X115638095Y-69274819D02*
X115161905Y-69274819D01*
X115161905Y-69274819D02*
X115114286Y-69751009D01*
X115114286Y-69751009D02*
X115161905Y-69703390D01*
X115161905Y-69703390D02*
X115257143Y-69655771D01*
X115257143Y-69655771D02*
X115495238Y-69655771D01*
X115495238Y-69655771D02*
X115590476Y-69703390D01*
X115590476Y-69703390D02*
X115638095Y-69751009D01*
X115638095Y-69751009D02*
X115685714Y-69846247D01*
X115685714Y-69846247D02*
X115685714Y-70084342D01*
X115685714Y-70084342D02*
X115638095Y-70179580D01*
X115638095Y-70179580D02*
X115590476Y-70227200D01*
X115590476Y-70227200D02*
X115495238Y-70274819D01*
X115495238Y-70274819D02*
X115257143Y-70274819D01*
X115257143Y-70274819D02*
X115161905Y-70227200D01*
X115161905Y-70227200D02*
X115114286Y-70179580D01*
X124613333Y-65814819D02*
X124280000Y-65338628D01*
X124041905Y-65814819D02*
X124041905Y-64814819D01*
X124041905Y-64814819D02*
X124422857Y-64814819D01*
X124422857Y-64814819D02*
X124518095Y-64862438D01*
X124518095Y-64862438D02*
X124565714Y-64910057D01*
X124565714Y-64910057D02*
X124613333Y-65005295D01*
X124613333Y-65005295D02*
X124613333Y-65148152D01*
X124613333Y-65148152D02*
X124565714Y-65243390D01*
X124565714Y-65243390D02*
X124518095Y-65291009D01*
X124518095Y-65291009D02*
X124422857Y-65338628D01*
X124422857Y-65338628D02*
X124041905Y-65338628D01*
X125184762Y-65243390D02*
X125089524Y-65195771D01*
X125089524Y-65195771D02*
X125041905Y-65148152D01*
X125041905Y-65148152D02*
X124994286Y-65052914D01*
X124994286Y-65052914D02*
X124994286Y-65005295D01*
X124994286Y-65005295D02*
X125041905Y-64910057D01*
X125041905Y-64910057D02*
X125089524Y-64862438D01*
X125089524Y-64862438D02*
X125184762Y-64814819D01*
X125184762Y-64814819D02*
X125375238Y-64814819D01*
X125375238Y-64814819D02*
X125470476Y-64862438D01*
X125470476Y-64862438D02*
X125518095Y-64910057D01*
X125518095Y-64910057D02*
X125565714Y-65005295D01*
X125565714Y-65005295D02*
X125565714Y-65052914D01*
X125565714Y-65052914D02*
X125518095Y-65148152D01*
X125518095Y-65148152D02*
X125470476Y-65195771D01*
X125470476Y-65195771D02*
X125375238Y-65243390D01*
X125375238Y-65243390D02*
X125184762Y-65243390D01*
X125184762Y-65243390D02*
X125089524Y-65291009D01*
X125089524Y-65291009D02*
X125041905Y-65338628D01*
X125041905Y-65338628D02*
X124994286Y-65433866D01*
X124994286Y-65433866D02*
X124994286Y-65624342D01*
X124994286Y-65624342D02*
X125041905Y-65719580D01*
X125041905Y-65719580D02*
X125089524Y-65767200D01*
X125089524Y-65767200D02*
X125184762Y-65814819D01*
X125184762Y-65814819D02*
X125375238Y-65814819D01*
X125375238Y-65814819D02*
X125470476Y-65767200D01*
X125470476Y-65767200D02*
X125518095Y-65719580D01*
X125518095Y-65719580D02*
X125565714Y-65624342D01*
X125565714Y-65624342D02*
X125565714Y-65433866D01*
X125565714Y-65433866D02*
X125518095Y-65338628D01*
X125518095Y-65338628D02*
X125470476Y-65291009D01*
X125470476Y-65291009D02*
X125375238Y-65243390D01*
X154644819Y-64433333D02*
X155359104Y-64433333D01*
X155359104Y-64433333D02*
X155501961Y-64480952D01*
X155501961Y-64480952D02*
X155597200Y-64576190D01*
X155597200Y-64576190D02*
X155644819Y-64719047D01*
X155644819Y-64719047D02*
X155644819Y-64814285D01*
X154740057Y-64004761D02*
X154692438Y-63957142D01*
X154692438Y-63957142D02*
X154644819Y-63861904D01*
X154644819Y-63861904D02*
X154644819Y-63623809D01*
X154644819Y-63623809D02*
X154692438Y-63528571D01*
X154692438Y-63528571D02*
X154740057Y-63480952D01*
X154740057Y-63480952D02*
X154835295Y-63433333D01*
X154835295Y-63433333D02*
X154930533Y-63433333D01*
X154930533Y-63433333D02*
X155073390Y-63480952D01*
X155073390Y-63480952D02*
X155644819Y-64052380D01*
X155644819Y-64052380D02*
X155644819Y-63433333D01*
X163941666Y-76974819D02*
X163941666Y-77689104D01*
X163941666Y-77689104D02*
X163894047Y-77831961D01*
X163894047Y-77831961D02*
X163798809Y-77927200D01*
X163798809Y-77927200D02*
X163655952Y-77974819D01*
X163655952Y-77974819D02*
X163560714Y-77974819D01*
X164846428Y-76974819D02*
X164655952Y-76974819D01*
X164655952Y-76974819D02*
X164560714Y-77022438D01*
X164560714Y-77022438D02*
X164513095Y-77070057D01*
X164513095Y-77070057D02*
X164417857Y-77212914D01*
X164417857Y-77212914D02*
X164370238Y-77403390D01*
X164370238Y-77403390D02*
X164370238Y-77784342D01*
X164370238Y-77784342D02*
X164417857Y-77879580D01*
X164417857Y-77879580D02*
X164465476Y-77927200D01*
X164465476Y-77927200D02*
X164560714Y-77974819D01*
X164560714Y-77974819D02*
X164751190Y-77974819D01*
X164751190Y-77974819D02*
X164846428Y-77927200D01*
X164846428Y-77927200D02*
X164894047Y-77879580D01*
X164894047Y-77879580D02*
X164941666Y-77784342D01*
X164941666Y-77784342D02*
X164941666Y-77546247D01*
X164941666Y-77546247D02*
X164894047Y-77451009D01*
X164894047Y-77451009D02*
X164846428Y-77403390D01*
X164846428Y-77403390D02*
X164751190Y-77355771D01*
X164751190Y-77355771D02*
X164560714Y-77355771D01*
X164560714Y-77355771D02*
X164465476Y-77403390D01*
X164465476Y-77403390D02*
X164417857Y-77451009D01*
X164417857Y-77451009D02*
X164370238Y-77546247D01*
X106531905Y-79034819D02*
X106531905Y-78034819D01*
X106531905Y-78034819D02*
X106770000Y-78034819D01*
X106770000Y-78034819D02*
X106912857Y-78082438D01*
X106912857Y-78082438D02*
X107008095Y-78177676D01*
X107008095Y-78177676D02*
X107055714Y-78272914D01*
X107055714Y-78272914D02*
X107103333Y-78463390D01*
X107103333Y-78463390D02*
X107103333Y-78606247D01*
X107103333Y-78606247D02*
X107055714Y-78796723D01*
X107055714Y-78796723D02*
X107008095Y-78891961D01*
X107008095Y-78891961D02*
X106912857Y-78987200D01*
X106912857Y-78987200D02*
X106770000Y-79034819D01*
X106770000Y-79034819D02*
X106531905Y-79034819D01*
X108055714Y-79034819D02*
X107484286Y-79034819D01*
X107770000Y-79034819D02*
X107770000Y-78034819D01*
X107770000Y-78034819D02*
X107674762Y-78177676D01*
X107674762Y-78177676D02*
X107579524Y-78272914D01*
X107579524Y-78272914D02*
X107484286Y-78320533D01*
X140666667Y-46577200D02*
X140809524Y-46624819D01*
X140809524Y-46624819D02*
X141047619Y-46624819D01*
X141047619Y-46624819D02*
X141142857Y-46577200D01*
X141142857Y-46577200D02*
X141190476Y-46529580D01*
X141190476Y-46529580D02*
X141238095Y-46434342D01*
X141238095Y-46434342D02*
X141238095Y-46339104D01*
X141238095Y-46339104D02*
X141190476Y-46243866D01*
X141190476Y-46243866D02*
X141142857Y-46196247D01*
X141142857Y-46196247D02*
X141047619Y-46148628D01*
X141047619Y-46148628D02*
X140857143Y-46101009D01*
X140857143Y-46101009D02*
X140761905Y-46053390D01*
X140761905Y-46053390D02*
X140714286Y-46005771D01*
X140714286Y-46005771D02*
X140666667Y-45910533D01*
X140666667Y-45910533D02*
X140666667Y-45815295D01*
X140666667Y-45815295D02*
X140714286Y-45720057D01*
X140714286Y-45720057D02*
X140761905Y-45672438D01*
X140761905Y-45672438D02*
X140857143Y-45624819D01*
X140857143Y-45624819D02*
X141095238Y-45624819D01*
X141095238Y-45624819D02*
X141238095Y-45672438D01*
X141571429Y-45624819D02*
X141809524Y-46624819D01*
X141809524Y-46624819D02*
X142000000Y-45910533D01*
X142000000Y-45910533D02*
X142190476Y-46624819D01*
X142190476Y-46624819D02*
X142428572Y-45624819D01*
X142761905Y-45720057D02*
X142809524Y-45672438D01*
X142809524Y-45672438D02*
X142904762Y-45624819D01*
X142904762Y-45624819D02*
X143142857Y-45624819D01*
X143142857Y-45624819D02*
X143238095Y-45672438D01*
X143238095Y-45672438D02*
X143285714Y-45720057D01*
X143285714Y-45720057D02*
X143333333Y-45815295D01*
X143333333Y-45815295D02*
X143333333Y-45910533D01*
X143333333Y-45910533D02*
X143285714Y-46053390D01*
X143285714Y-46053390D02*
X142714286Y-46624819D01*
X142714286Y-46624819D02*
X143333333Y-46624819D01*
X129204819Y-57336666D02*
X128728628Y-57669999D01*
X129204819Y-57908094D02*
X128204819Y-57908094D01*
X128204819Y-57908094D02*
X128204819Y-57527142D01*
X128204819Y-57527142D02*
X128252438Y-57431904D01*
X128252438Y-57431904D02*
X128300057Y-57384285D01*
X128300057Y-57384285D02*
X128395295Y-57336666D01*
X128395295Y-57336666D02*
X128538152Y-57336666D01*
X128538152Y-57336666D02*
X128633390Y-57384285D01*
X128633390Y-57384285D02*
X128681009Y-57431904D01*
X128681009Y-57431904D02*
X128728628Y-57527142D01*
X128728628Y-57527142D02*
X128728628Y-57908094D01*
X128204819Y-57003332D02*
X128204819Y-56336666D01*
X128204819Y-56336666D02*
X129204819Y-56765237D01*
X110083333Y-68109580D02*
X110035714Y-68157200D01*
X110035714Y-68157200D02*
X109892857Y-68204819D01*
X109892857Y-68204819D02*
X109797619Y-68204819D01*
X109797619Y-68204819D02*
X109654762Y-68157200D01*
X109654762Y-68157200D02*
X109559524Y-68061961D01*
X109559524Y-68061961D02*
X109511905Y-67966723D01*
X109511905Y-67966723D02*
X109464286Y-67776247D01*
X109464286Y-67776247D02*
X109464286Y-67633390D01*
X109464286Y-67633390D02*
X109511905Y-67442914D01*
X109511905Y-67442914D02*
X109559524Y-67347676D01*
X109559524Y-67347676D02*
X109654762Y-67252438D01*
X109654762Y-67252438D02*
X109797619Y-67204819D01*
X109797619Y-67204819D02*
X109892857Y-67204819D01*
X109892857Y-67204819D02*
X110035714Y-67252438D01*
X110035714Y-67252438D02*
X110083333Y-67300057D01*
X110464286Y-67300057D02*
X110511905Y-67252438D01*
X110511905Y-67252438D02*
X110607143Y-67204819D01*
X110607143Y-67204819D02*
X110845238Y-67204819D01*
X110845238Y-67204819D02*
X110940476Y-67252438D01*
X110940476Y-67252438D02*
X110988095Y-67300057D01*
X110988095Y-67300057D02*
X111035714Y-67395295D01*
X111035714Y-67395295D02*
X111035714Y-67490533D01*
X111035714Y-67490533D02*
X110988095Y-67633390D01*
X110988095Y-67633390D02*
X110416667Y-68204819D01*
X110416667Y-68204819D02*
X111035714Y-68204819D01*
X148100595Y-58354819D02*
X148100595Y-59164342D01*
X148100595Y-59164342D02*
X148148214Y-59259580D01*
X148148214Y-59259580D02*
X148195833Y-59307200D01*
X148195833Y-59307200D02*
X148291071Y-59354819D01*
X148291071Y-59354819D02*
X148481547Y-59354819D01*
X148481547Y-59354819D02*
X148576785Y-59307200D01*
X148576785Y-59307200D02*
X148624404Y-59259580D01*
X148624404Y-59259580D02*
X148672023Y-59164342D01*
X148672023Y-59164342D02*
X148672023Y-58354819D01*
X149100595Y-58450057D02*
X149148214Y-58402438D01*
X149148214Y-58402438D02*
X149243452Y-58354819D01*
X149243452Y-58354819D02*
X149481547Y-58354819D01*
X149481547Y-58354819D02*
X149576785Y-58402438D01*
X149576785Y-58402438D02*
X149624404Y-58450057D01*
X149624404Y-58450057D02*
X149672023Y-58545295D01*
X149672023Y-58545295D02*
X149672023Y-58640533D01*
X149672023Y-58640533D02*
X149624404Y-58783390D01*
X149624404Y-58783390D02*
X149052976Y-59354819D01*
X149052976Y-59354819D02*
X149672023Y-59354819D01*
X161066666Y-50754819D02*
X161066666Y-51469104D01*
X161066666Y-51469104D02*
X161019047Y-51611961D01*
X161019047Y-51611961D02*
X160923809Y-51707200D01*
X160923809Y-51707200D02*
X160780952Y-51754819D01*
X160780952Y-51754819D02*
X160685714Y-51754819D01*
X161971428Y-51088152D02*
X161971428Y-51754819D01*
X161733333Y-50707200D02*
X161495238Y-51421485D01*
X161495238Y-51421485D02*
X162114285Y-51421485D01*
X137083333Y-65609580D02*
X137035714Y-65657200D01*
X137035714Y-65657200D02*
X136892857Y-65704819D01*
X136892857Y-65704819D02*
X136797619Y-65704819D01*
X136797619Y-65704819D02*
X136654762Y-65657200D01*
X136654762Y-65657200D02*
X136559524Y-65561961D01*
X136559524Y-65561961D02*
X136511905Y-65466723D01*
X136511905Y-65466723D02*
X136464286Y-65276247D01*
X136464286Y-65276247D02*
X136464286Y-65133390D01*
X136464286Y-65133390D02*
X136511905Y-64942914D01*
X136511905Y-64942914D02*
X136559524Y-64847676D01*
X136559524Y-64847676D02*
X136654762Y-64752438D01*
X136654762Y-64752438D02*
X136797619Y-64704819D01*
X136797619Y-64704819D02*
X136892857Y-64704819D01*
X136892857Y-64704819D02*
X137035714Y-64752438D01*
X137035714Y-64752438D02*
X137083333Y-64800057D01*
X138035714Y-65704819D02*
X137464286Y-65704819D01*
X137750000Y-65704819D02*
X137750000Y-64704819D01*
X137750000Y-64704819D02*
X137654762Y-64847676D01*
X137654762Y-64847676D02*
X137559524Y-64942914D01*
X137559524Y-64942914D02*
X137464286Y-64990533D01*
X149154761Y-70050057D02*
X149059523Y-70002438D01*
X149059523Y-70002438D02*
X148964285Y-69907200D01*
X148964285Y-69907200D02*
X148821428Y-69764342D01*
X148821428Y-69764342D02*
X148726190Y-69716723D01*
X148726190Y-69716723D02*
X148630952Y-69716723D01*
X148678571Y-69954819D02*
X148583333Y-69907200D01*
X148583333Y-69907200D02*
X148488095Y-69811961D01*
X148488095Y-69811961D02*
X148440476Y-69621485D01*
X148440476Y-69621485D02*
X148440476Y-69288152D01*
X148440476Y-69288152D02*
X148488095Y-69097676D01*
X148488095Y-69097676D02*
X148583333Y-69002438D01*
X148583333Y-69002438D02*
X148678571Y-68954819D01*
X148678571Y-68954819D02*
X148869047Y-68954819D01*
X148869047Y-68954819D02*
X148964285Y-69002438D01*
X148964285Y-69002438D02*
X149059523Y-69097676D01*
X149059523Y-69097676D02*
X149107142Y-69288152D01*
X149107142Y-69288152D02*
X149107142Y-69621485D01*
X149107142Y-69621485D02*
X149059523Y-69811961D01*
X149059523Y-69811961D02*
X148964285Y-69907200D01*
X148964285Y-69907200D02*
X148869047Y-69954819D01*
X148869047Y-69954819D02*
X148678571Y-69954819D01*
X149488095Y-69050057D02*
X149535714Y-69002438D01*
X149535714Y-69002438D02*
X149630952Y-68954819D01*
X149630952Y-68954819D02*
X149869047Y-68954819D01*
X149869047Y-68954819D02*
X149964285Y-69002438D01*
X149964285Y-69002438D02*
X150011904Y-69050057D01*
X150011904Y-69050057D02*
X150059523Y-69145295D01*
X150059523Y-69145295D02*
X150059523Y-69240533D01*
X150059523Y-69240533D02*
X150011904Y-69383390D01*
X150011904Y-69383390D02*
X149440476Y-69954819D01*
X149440476Y-69954819D02*
X150059523Y-69954819D01*
X116523333Y-75804819D02*
X116190000Y-75328628D01*
X115951905Y-75804819D02*
X115951905Y-74804819D01*
X115951905Y-74804819D02*
X116332857Y-74804819D01*
X116332857Y-74804819D02*
X116428095Y-74852438D01*
X116428095Y-74852438D02*
X116475714Y-74900057D01*
X116475714Y-74900057D02*
X116523333Y-74995295D01*
X116523333Y-74995295D02*
X116523333Y-75138152D01*
X116523333Y-75138152D02*
X116475714Y-75233390D01*
X116475714Y-75233390D02*
X116428095Y-75281009D01*
X116428095Y-75281009D02*
X116332857Y-75328628D01*
X116332857Y-75328628D02*
X115951905Y-75328628D01*
X117380476Y-74804819D02*
X117190000Y-74804819D01*
X117190000Y-74804819D02*
X117094762Y-74852438D01*
X117094762Y-74852438D02*
X117047143Y-74900057D01*
X117047143Y-74900057D02*
X116951905Y-75042914D01*
X116951905Y-75042914D02*
X116904286Y-75233390D01*
X116904286Y-75233390D02*
X116904286Y-75614342D01*
X116904286Y-75614342D02*
X116951905Y-75709580D01*
X116951905Y-75709580D02*
X116999524Y-75757200D01*
X116999524Y-75757200D02*
X117094762Y-75804819D01*
X117094762Y-75804819D02*
X117285238Y-75804819D01*
X117285238Y-75804819D02*
X117380476Y-75757200D01*
X117380476Y-75757200D02*
X117428095Y-75709580D01*
X117428095Y-75709580D02*
X117475714Y-75614342D01*
X117475714Y-75614342D02*
X117475714Y-75376247D01*
X117475714Y-75376247D02*
X117428095Y-75281009D01*
X117428095Y-75281009D02*
X117380476Y-75233390D01*
X117380476Y-75233390D02*
X117285238Y-75185771D01*
X117285238Y-75185771D02*
X117094762Y-75185771D01*
X117094762Y-75185771D02*
X116999524Y-75233390D01*
X116999524Y-75233390D02*
X116951905Y-75281009D01*
X116951905Y-75281009D02*
X116904286Y-75376247D01*
X123666667Y-80407200D02*
X123809524Y-80454819D01*
X123809524Y-80454819D02*
X124047619Y-80454819D01*
X124047619Y-80454819D02*
X124142857Y-80407200D01*
X124142857Y-80407200D02*
X124190476Y-80359580D01*
X124190476Y-80359580D02*
X124238095Y-80264342D01*
X124238095Y-80264342D02*
X124238095Y-80169104D01*
X124238095Y-80169104D02*
X124190476Y-80073866D01*
X124190476Y-80073866D02*
X124142857Y-80026247D01*
X124142857Y-80026247D02*
X124047619Y-79978628D01*
X124047619Y-79978628D02*
X123857143Y-79931009D01*
X123857143Y-79931009D02*
X123761905Y-79883390D01*
X123761905Y-79883390D02*
X123714286Y-79835771D01*
X123714286Y-79835771D02*
X123666667Y-79740533D01*
X123666667Y-79740533D02*
X123666667Y-79645295D01*
X123666667Y-79645295D02*
X123714286Y-79550057D01*
X123714286Y-79550057D02*
X123761905Y-79502438D01*
X123761905Y-79502438D02*
X123857143Y-79454819D01*
X123857143Y-79454819D02*
X124095238Y-79454819D01*
X124095238Y-79454819D02*
X124238095Y-79502438D01*
X124571429Y-79454819D02*
X124809524Y-80454819D01*
X124809524Y-80454819D02*
X125000000Y-79740533D01*
X125000000Y-79740533D02*
X125190476Y-80454819D01*
X125190476Y-80454819D02*
X125428572Y-79454819D01*
X125714286Y-79454819D02*
X126333333Y-79454819D01*
X126333333Y-79454819D02*
X126000000Y-79835771D01*
X126000000Y-79835771D02*
X126142857Y-79835771D01*
X126142857Y-79835771D02*
X126238095Y-79883390D01*
X126238095Y-79883390D02*
X126285714Y-79931009D01*
X126285714Y-79931009D02*
X126333333Y-80026247D01*
X126333333Y-80026247D02*
X126333333Y-80264342D01*
X126333333Y-80264342D02*
X126285714Y-80359580D01*
X126285714Y-80359580D02*
X126238095Y-80407200D01*
X126238095Y-80407200D02*
X126142857Y-80454819D01*
X126142857Y-80454819D02*
X125857143Y-80454819D01*
X125857143Y-80454819D02*
X125761905Y-80407200D01*
X125761905Y-80407200D02*
X125714286Y-80359580D01*
X143109580Y-57666666D02*
X143157200Y-57714285D01*
X143157200Y-57714285D02*
X143204819Y-57857142D01*
X143204819Y-57857142D02*
X143204819Y-57952380D01*
X143204819Y-57952380D02*
X143157200Y-58095237D01*
X143157200Y-58095237D02*
X143061961Y-58190475D01*
X143061961Y-58190475D02*
X142966723Y-58238094D01*
X142966723Y-58238094D02*
X142776247Y-58285713D01*
X142776247Y-58285713D02*
X142633390Y-58285713D01*
X142633390Y-58285713D02*
X142442914Y-58238094D01*
X142442914Y-58238094D02*
X142347676Y-58190475D01*
X142347676Y-58190475D02*
X142252438Y-58095237D01*
X142252438Y-58095237D02*
X142204819Y-57952380D01*
X142204819Y-57952380D02*
X142204819Y-57857142D01*
X142204819Y-57857142D02*
X142252438Y-57714285D01*
X142252438Y-57714285D02*
X142300057Y-57666666D01*
X142538152Y-56809523D02*
X143204819Y-56809523D01*
X142157200Y-57047618D02*
X142871485Y-57285713D01*
X142871485Y-57285713D02*
X142871485Y-56666666D01*
X149154761Y-64300057D02*
X149059523Y-64252438D01*
X149059523Y-64252438D02*
X148964285Y-64157200D01*
X148964285Y-64157200D02*
X148821428Y-64014342D01*
X148821428Y-64014342D02*
X148726190Y-63966723D01*
X148726190Y-63966723D02*
X148630952Y-63966723D01*
X148678571Y-64204819D02*
X148583333Y-64157200D01*
X148583333Y-64157200D02*
X148488095Y-64061961D01*
X148488095Y-64061961D02*
X148440476Y-63871485D01*
X148440476Y-63871485D02*
X148440476Y-63538152D01*
X148440476Y-63538152D02*
X148488095Y-63347676D01*
X148488095Y-63347676D02*
X148583333Y-63252438D01*
X148583333Y-63252438D02*
X148678571Y-63204819D01*
X148678571Y-63204819D02*
X148869047Y-63204819D01*
X148869047Y-63204819D02*
X148964285Y-63252438D01*
X148964285Y-63252438D02*
X149059523Y-63347676D01*
X149059523Y-63347676D02*
X149107142Y-63538152D01*
X149107142Y-63538152D02*
X149107142Y-63871485D01*
X149107142Y-63871485D02*
X149059523Y-64061961D01*
X149059523Y-64061961D02*
X148964285Y-64157200D01*
X148964285Y-64157200D02*
X148869047Y-64204819D01*
X148869047Y-64204819D02*
X148678571Y-64204819D01*
X150059523Y-64204819D02*
X149488095Y-64204819D01*
X149773809Y-64204819D02*
X149773809Y-63204819D01*
X149773809Y-63204819D02*
X149678571Y-63347676D01*
X149678571Y-63347676D02*
X149583333Y-63442914D01*
X149583333Y-63442914D02*
X149488095Y-63490533D01*
X130666667Y-46727200D02*
X130809524Y-46774819D01*
X130809524Y-46774819D02*
X131047619Y-46774819D01*
X131047619Y-46774819D02*
X131142857Y-46727200D01*
X131142857Y-46727200D02*
X131190476Y-46679580D01*
X131190476Y-46679580D02*
X131238095Y-46584342D01*
X131238095Y-46584342D02*
X131238095Y-46489104D01*
X131238095Y-46489104D02*
X131190476Y-46393866D01*
X131190476Y-46393866D02*
X131142857Y-46346247D01*
X131142857Y-46346247D02*
X131047619Y-46298628D01*
X131047619Y-46298628D02*
X130857143Y-46251009D01*
X130857143Y-46251009D02*
X130761905Y-46203390D01*
X130761905Y-46203390D02*
X130714286Y-46155771D01*
X130714286Y-46155771D02*
X130666667Y-46060533D01*
X130666667Y-46060533D02*
X130666667Y-45965295D01*
X130666667Y-45965295D02*
X130714286Y-45870057D01*
X130714286Y-45870057D02*
X130761905Y-45822438D01*
X130761905Y-45822438D02*
X130857143Y-45774819D01*
X130857143Y-45774819D02*
X131095238Y-45774819D01*
X131095238Y-45774819D02*
X131238095Y-45822438D01*
X131571429Y-45774819D02*
X131809524Y-46774819D01*
X131809524Y-46774819D02*
X132000000Y-46060533D01*
X132000000Y-46060533D02*
X132190476Y-46774819D01*
X132190476Y-46774819D02*
X132428572Y-45774819D01*
X133333333Y-46774819D02*
X132761905Y-46774819D01*
X133047619Y-46774819D02*
X133047619Y-45774819D01*
X133047619Y-45774819D02*
X132952381Y-45917676D01*
X132952381Y-45917676D02*
X132857143Y-46012914D01*
X132857143Y-46012914D02*
X132761905Y-46060533D01*
X139454819Y-57336666D02*
X138978628Y-57669999D01*
X139454819Y-57908094D02*
X138454819Y-57908094D01*
X138454819Y-57908094D02*
X138454819Y-57527142D01*
X138454819Y-57527142D02*
X138502438Y-57431904D01*
X138502438Y-57431904D02*
X138550057Y-57384285D01*
X138550057Y-57384285D02*
X138645295Y-57336666D01*
X138645295Y-57336666D02*
X138788152Y-57336666D01*
X138788152Y-57336666D02*
X138883390Y-57384285D01*
X138883390Y-57384285D02*
X138931009Y-57431904D01*
X138931009Y-57431904D02*
X138978628Y-57527142D01*
X138978628Y-57527142D02*
X138978628Y-57908094D01*
X139454819Y-56860475D02*
X139454819Y-56669999D01*
X139454819Y-56669999D02*
X139407200Y-56574761D01*
X139407200Y-56574761D02*
X139359580Y-56527142D01*
X139359580Y-56527142D02*
X139216723Y-56431904D01*
X139216723Y-56431904D02*
X139026247Y-56384285D01*
X139026247Y-56384285D02*
X138645295Y-56384285D01*
X138645295Y-56384285D02*
X138550057Y-56431904D01*
X138550057Y-56431904D02*
X138502438Y-56479523D01*
X138502438Y-56479523D02*
X138454819Y-56574761D01*
X138454819Y-56574761D02*
X138454819Y-56765237D01*
X138454819Y-56765237D02*
X138502438Y-56860475D01*
X138502438Y-56860475D02*
X138550057Y-56908094D01*
X138550057Y-56908094D02*
X138645295Y-56955713D01*
X138645295Y-56955713D02*
X138883390Y-56955713D01*
X138883390Y-56955713D02*
X138978628Y-56908094D01*
X138978628Y-56908094D02*
X139026247Y-56860475D01*
X139026247Y-56860475D02*
X139073866Y-56765237D01*
X139073866Y-56765237D02*
X139073866Y-56574761D01*
X139073866Y-56574761D02*
X139026247Y-56479523D01*
X139026247Y-56479523D02*
X138978628Y-56431904D01*
X138978628Y-56431904D02*
X138883390Y-56384285D01*
X136204819Y-57336666D02*
X135728628Y-57669999D01*
X136204819Y-57908094D02*
X135204819Y-57908094D01*
X135204819Y-57908094D02*
X135204819Y-57527142D01*
X135204819Y-57527142D02*
X135252438Y-57431904D01*
X135252438Y-57431904D02*
X135300057Y-57384285D01*
X135300057Y-57384285D02*
X135395295Y-57336666D01*
X135395295Y-57336666D02*
X135538152Y-57336666D01*
X135538152Y-57336666D02*
X135633390Y-57384285D01*
X135633390Y-57384285D02*
X135681009Y-57431904D01*
X135681009Y-57431904D02*
X135728628Y-57527142D01*
X135728628Y-57527142D02*
X135728628Y-57908094D01*
X135204819Y-57003332D02*
X135204819Y-56384285D01*
X135204819Y-56384285D02*
X135585771Y-56717618D01*
X135585771Y-56717618D02*
X135585771Y-56574761D01*
X135585771Y-56574761D02*
X135633390Y-56479523D01*
X135633390Y-56479523D02*
X135681009Y-56431904D01*
X135681009Y-56431904D02*
X135776247Y-56384285D01*
X135776247Y-56384285D02*
X136014342Y-56384285D01*
X136014342Y-56384285D02*
X136109580Y-56431904D01*
X136109580Y-56431904D02*
X136157200Y-56479523D01*
X136157200Y-56479523D02*
X136204819Y-56574761D01*
X136204819Y-56574761D02*
X136204819Y-56860475D01*
X136204819Y-56860475D02*
X136157200Y-56955713D01*
X136157200Y-56955713D02*
X136109580Y-57003332D01*
X144359580Y-66416666D02*
X144407200Y-66464285D01*
X144407200Y-66464285D02*
X144454819Y-66607142D01*
X144454819Y-66607142D02*
X144454819Y-66702380D01*
X144454819Y-66702380D02*
X144407200Y-66845237D01*
X144407200Y-66845237D02*
X144311961Y-66940475D01*
X144311961Y-66940475D02*
X144216723Y-66988094D01*
X144216723Y-66988094D02*
X144026247Y-67035713D01*
X144026247Y-67035713D02*
X143883390Y-67035713D01*
X143883390Y-67035713D02*
X143692914Y-66988094D01*
X143692914Y-66988094D02*
X143597676Y-66940475D01*
X143597676Y-66940475D02*
X143502438Y-66845237D01*
X143502438Y-66845237D02*
X143454819Y-66702380D01*
X143454819Y-66702380D02*
X143454819Y-66607142D01*
X143454819Y-66607142D02*
X143502438Y-66464285D01*
X143502438Y-66464285D02*
X143550057Y-66416666D01*
X143454819Y-65559523D02*
X143454819Y-65749999D01*
X143454819Y-65749999D02*
X143502438Y-65845237D01*
X143502438Y-65845237D02*
X143550057Y-65892856D01*
X143550057Y-65892856D02*
X143692914Y-65988094D01*
X143692914Y-65988094D02*
X143883390Y-66035713D01*
X143883390Y-66035713D02*
X144264342Y-66035713D01*
X144264342Y-66035713D02*
X144359580Y-65988094D01*
X144359580Y-65988094D02*
X144407200Y-65940475D01*
X144407200Y-65940475D02*
X144454819Y-65845237D01*
X144454819Y-65845237D02*
X144454819Y-65654761D01*
X144454819Y-65654761D02*
X144407200Y-65559523D01*
X144407200Y-65559523D02*
X144359580Y-65511904D01*
X144359580Y-65511904D02*
X144264342Y-65464285D01*
X144264342Y-65464285D02*
X144026247Y-65464285D01*
X144026247Y-65464285D02*
X143931009Y-65511904D01*
X143931009Y-65511904D02*
X143883390Y-65559523D01*
X143883390Y-65559523D02*
X143835771Y-65654761D01*
X143835771Y-65654761D02*
X143835771Y-65845237D01*
X143835771Y-65845237D02*
X143883390Y-65940475D01*
X143883390Y-65940475D02*
X143931009Y-65988094D01*
X143931009Y-65988094D02*
X144026247Y-66035713D01*
X157466666Y-60631009D02*
X157133333Y-60631009D01*
X157133333Y-61154819D02*
X157133333Y-60154819D01*
X157133333Y-60154819D02*
X157609523Y-60154819D01*
X158514285Y-61154819D02*
X157942857Y-61154819D01*
X158228571Y-61154819D02*
X158228571Y-60154819D01*
X158228571Y-60154819D02*
X158133333Y-60297676D01*
X158133333Y-60297676D02*
X158038095Y-60392914D01*
X158038095Y-60392914D02*
X157942857Y-60440533D01*
X98506666Y-65504819D02*
X98506666Y-66219104D01*
X98506666Y-66219104D02*
X98459047Y-66361961D01*
X98459047Y-66361961D02*
X98363809Y-66457200D01*
X98363809Y-66457200D02*
X98220952Y-66504819D01*
X98220952Y-66504819D02*
X98125714Y-66504819D01*
X98887619Y-65504819D02*
X99506666Y-65504819D01*
X99506666Y-65504819D02*
X99173333Y-65885771D01*
X99173333Y-65885771D02*
X99316190Y-65885771D01*
X99316190Y-65885771D02*
X99411428Y-65933390D01*
X99411428Y-65933390D02*
X99459047Y-65981009D01*
X99459047Y-65981009D02*
X99506666Y-66076247D01*
X99506666Y-66076247D02*
X99506666Y-66314342D01*
X99506666Y-66314342D02*
X99459047Y-66409580D01*
X99459047Y-66409580D02*
X99411428Y-66457200D01*
X99411428Y-66457200D02*
X99316190Y-66504819D01*
X99316190Y-66504819D02*
X99030476Y-66504819D01*
X99030476Y-66504819D02*
X98935238Y-66457200D01*
X98935238Y-66457200D02*
X98887619Y-66409580D01*
X98506666Y-53144819D02*
X98506666Y-53859104D01*
X98506666Y-53859104D02*
X98459047Y-54001961D01*
X98459047Y-54001961D02*
X98363809Y-54097200D01*
X98363809Y-54097200D02*
X98220952Y-54144819D01*
X98220952Y-54144819D02*
X98125714Y-54144819D01*
X99506666Y-54144819D02*
X98935238Y-54144819D01*
X99220952Y-54144819D02*
X99220952Y-53144819D01*
X99220952Y-53144819D02*
X99125714Y-53287676D01*
X99125714Y-53287676D02*
X99030476Y-53382914D01*
X99030476Y-53382914D02*
X98935238Y-53430533D01*
X146333333Y-50859580D02*
X146285714Y-50907200D01*
X146285714Y-50907200D02*
X146142857Y-50954819D01*
X146142857Y-50954819D02*
X146047619Y-50954819D01*
X146047619Y-50954819D02*
X145904762Y-50907200D01*
X145904762Y-50907200D02*
X145809524Y-50811961D01*
X145809524Y-50811961D02*
X145761905Y-50716723D01*
X145761905Y-50716723D02*
X145714286Y-50526247D01*
X145714286Y-50526247D02*
X145714286Y-50383390D01*
X145714286Y-50383390D02*
X145761905Y-50192914D01*
X145761905Y-50192914D02*
X145809524Y-50097676D01*
X145809524Y-50097676D02*
X145904762Y-50002438D01*
X145904762Y-50002438D02*
X146047619Y-49954819D01*
X146047619Y-49954819D02*
X146142857Y-49954819D01*
X146142857Y-49954819D02*
X146285714Y-50002438D01*
X146285714Y-50002438D02*
X146333333Y-50050057D01*
X146666667Y-49954819D02*
X147285714Y-49954819D01*
X147285714Y-49954819D02*
X146952381Y-50335771D01*
X146952381Y-50335771D02*
X147095238Y-50335771D01*
X147095238Y-50335771D02*
X147190476Y-50383390D01*
X147190476Y-50383390D02*
X147238095Y-50431009D01*
X147238095Y-50431009D02*
X147285714Y-50526247D01*
X147285714Y-50526247D02*
X147285714Y-50764342D01*
X147285714Y-50764342D02*
X147238095Y-50859580D01*
X147238095Y-50859580D02*
X147190476Y-50907200D01*
X147190476Y-50907200D02*
X147095238Y-50954819D01*
X147095238Y-50954819D02*
X146809524Y-50954819D01*
X146809524Y-50954819D02*
X146714286Y-50907200D01*
X146714286Y-50907200D02*
X146666667Y-50859580D01*
D12*
X119210000Y-72000000D02*
X119980000Y-72000000D01*
X119980000Y-70630000D02*
X119980000Y-73370000D01*
X119980000Y-73370000D02*
X126520000Y-73370000D01*
X126520000Y-70630000D02*
X119980000Y-70630000D01*
X126520000Y-73370000D02*
X126520000Y-70630000D01*
X127290000Y-72000000D02*
X126520000Y-72000000D01*
X159060000Y-45670000D02*
X159060000Y-45514000D01*
X159060000Y-47986000D02*
X159060000Y-47830000D01*
X155828603Y-45669939D02*
G75*
G02*
X159060000Y-45514484I1671397J-1080061D01*
G01*
X156459090Y-45669951D02*
G75*
G02*
X158540961Y-45670000I1040910J-1080049D01*
G01*
X158540961Y-47830000D02*
G75*
G02*
X156459090Y-47830049I-1040961J1080000D01*
G01*
X159060000Y-47985516D02*
G75*
G02*
X155828603Y-47830061I-1560000J1235516D01*
G01*
X157840000Y-65170000D02*
X157840000Y-67830000D01*
X162980000Y-65170000D02*
X157840000Y-65170000D01*
X162980000Y-65170000D02*
X162980000Y-67830000D01*
X162980000Y-67830000D02*
X157840000Y-67830000D01*
X165580000Y-66500000D02*
X165580000Y-67830000D01*
X165580000Y-67830000D02*
X164250000Y-67830000D01*
X143480000Y-72571000D02*
X143480000Y-73829000D01*
X145320000Y-72571000D02*
X145320000Y-73829000D01*
X146020000Y-74015100D02*
X151180000Y-74015100D01*
X146020000Y-74055100D02*
X151180000Y-74055100D01*
X146021000Y-73975100D02*
X151179000Y-73975100D01*
X146022000Y-73935100D02*
X151178000Y-73935100D01*
X146024000Y-73895100D02*
X151176000Y-73895100D01*
X146027000Y-73855100D02*
X151173000Y-73855100D01*
X146031000Y-73815100D02*
X147560000Y-73815100D01*
X146035000Y-73775100D02*
X147560000Y-73775100D01*
X146039000Y-73735100D02*
X147560000Y-73735100D01*
X146044000Y-73695100D02*
X147560000Y-73695100D01*
X146050000Y-73655100D02*
X147560000Y-73655100D01*
X146057000Y-73615100D02*
X147560000Y-73615100D01*
X146064000Y-73575100D02*
X147560000Y-73575100D01*
X146072000Y-73535100D02*
X147560000Y-73535100D01*
X146080000Y-73495100D02*
X147560000Y-73495100D01*
X146089000Y-73455100D02*
X147560000Y-73455100D01*
X146099000Y-73415100D02*
X147560000Y-73415100D01*
X146109000Y-73375100D02*
X147560000Y-73375100D01*
X146120000Y-73334100D02*
X147560000Y-73334100D01*
X146132000Y-73294100D02*
X147560000Y-73294100D01*
X146145000Y-73254100D02*
X147560000Y-73254100D01*
X146158000Y-73214100D02*
X147560000Y-73214100D01*
X146172000Y-73174100D02*
X147560000Y-73174100D01*
X146186000Y-73134100D02*
X147560000Y-73134100D01*
X146202000Y-73094100D02*
X147560000Y-73094100D01*
X146218000Y-73054100D02*
X147560000Y-73054100D01*
X146235000Y-73014100D02*
X147560000Y-73014100D01*
X146252000Y-72974100D02*
X147560000Y-72974100D01*
X146271000Y-72934100D02*
X147560000Y-72934100D01*
X146290000Y-72894100D02*
X147560000Y-72894100D01*
X146310000Y-72854100D02*
X147560000Y-72854100D01*
X146332000Y-72814100D02*
X147560000Y-72814100D01*
X146353000Y-72774100D02*
X147560000Y-72774100D01*
X146376000Y-72734100D02*
X147560000Y-72734100D01*
X146400000Y-72694100D02*
X147560000Y-72694100D01*
X146425000Y-72654100D02*
X147560000Y-72654100D01*
X146451000Y-72614100D02*
X147560000Y-72614100D01*
X146478000Y-72574100D02*
X147560000Y-72574100D01*
X146505000Y-72534100D02*
X147560000Y-72534100D01*
X146535000Y-72494100D02*
X147560000Y-72494100D01*
X146565000Y-72454100D02*
X147560000Y-72454100D01*
X146596000Y-72414100D02*
X147560000Y-72414100D01*
X146629000Y-72374100D02*
X147560000Y-72374100D01*
X146663000Y-72334100D02*
X147560000Y-72334100D01*
X146699000Y-72294100D02*
X147560000Y-72294100D01*
X146736000Y-72254100D02*
X147560000Y-72254100D01*
X146774000Y-72214100D02*
X147560000Y-72214100D01*
X146815000Y-72174100D02*
X147560000Y-72174100D01*
X146857000Y-72134100D02*
X147560000Y-72134100D01*
X146875000Y-76609875D02*
X147375000Y-76609875D01*
X146901000Y-72094100D02*
X147560000Y-72094100D01*
X146947000Y-72054100D02*
X147560000Y-72054100D01*
X146995000Y-72014100D02*
X147560000Y-72014100D01*
X147046000Y-71974100D02*
X147560000Y-71974100D01*
X147100000Y-71934100D02*
X147560000Y-71934100D01*
X147125000Y-76859875D02*
X147125000Y-76359875D01*
X147157000Y-71894100D02*
X147560000Y-71894100D01*
X147217000Y-71854100D02*
X147560000Y-71854100D01*
X147281000Y-71814100D02*
X147560000Y-71814100D01*
X147349000Y-71774100D02*
X147560000Y-71774100D01*
X147422000Y-71734100D02*
X149778000Y-71734100D01*
X147502000Y-71694100D02*
X149698000Y-71694100D01*
X147589000Y-71654100D02*
X149611000Y-71654100D01*
X147685000Y-71614100D02*
X149515000Y-71614100D01*
X147795000Y-71574100D02*
X149405000Y-71574100D01*
X147923000Y-71534100D02*
X149277000Y-71534100D01*
X148082000Y-71494100D02*
X149118000Y-71494100D01*
X148316000Y-71454100D02*
X148884000Y-71454100D01*
X149640000Y-71774100D02*
X149851000Y-71774100D01*
X149640000Y-71814100D02*
X149919000Y-71814100D01*
X149640000Y-71854100D02*
X149983000Y-71854100D01*
X149640000Y-71894100D02*
X150043000Y-71894100D01*
X149640000Y-71934100D02*
X150100000Y-71934100D01*
X149640000Y-71974100D02*
X150154000Y-71974100D01*
X149640000Y-72014100D02*
X150205000Y-72014100D01*
X149640000Y-72054100D02*
X150253000Y-72054100D01*
X149640000Y-72094100D02*
X150299000Y-72094100D01*
X149640000Y-72134100D02*
X150343000Y-72134100D01*
X149640000Y-72174100D02*
X150385000Y-72174100D01*
X149640000Y-72214100D02*
X150426000Y-72214100D01*
X149640000Y-72254100D02*
X150464000Y-72254100D01*
X149640000Y-72294100D02*
X150501000Y-72294100D01*
X149640000Y-72334100D02*
X150537000Y-72334100D01*
X149640000Y-72374100D02*
X150571000Y-72374100D01*
X149640000Y-72414100D02*
X150604000Y-72414100D01*
X149640000Y-72454100D02*
X150635000Y-72454100D01*
X149640000Y-72494100D02*
X150665000Y-72494100D01*
X149640000Y-72534100D02*
X150695000Y-72534100D01*
X149640000Y-72574100D02*
X150722000Y-72574100D01*
X149640000Y-72614100D02*
X150749000Y-72614100D01*
X149640000Y-72654100D02*
X150775000Y-72654100D01*
X149640000Y-72694100D02*
X150800000Y-72694100D01*
X149640000Y-72734100D02*
X150824000Y-72734100D01*
X149640000Y-72774100D02*
X150847000Y-72774100D01*
X149640000Y-72814100D02*
X150868000Y-72814100D01*
X149640000Y-72854100D02*
X150890000Y-72854100D01*
X149640000Y-72894100D02*
X150910000Y-72894100D01*
X149640000Y-72934100D02*
X150929000Y-72934100D01*
X149640000Y-72974100D02*
X150948000Y-72974100D01*
X149640000Y-73014100D02*
X150965000Y-73014100D01*
X149640000Y-73054100D02*
X150982000Y-73054100D01*
X149640000Y-73094100D02*
X150998000Y-73094100D01*
X149640000Y-73134100D02*
X151014000Y-73134100D01*
X149640000Y-73174100D02*
X151028000Y-73174100D01*
X149640000Y-73214100D02*
X151042000Y-73214100D01*
X149640000Y-73254100D02*
X151055000Y-73254100D01*
X149640000Y-73294100D02*
X151068000Y-73294100D01*
X149640000Y-73334100D02*
X151080000Y-73334100D01*
X149640000Y-73375100D02*
X151091000Y-73375100D01*
X149640000Y-73415100D02*
X151101000Y-73415100D01*
X149640000Y-73455100D02*
X151111000Y-73455100D01*
X149640000Y-73495100D02*
X151120000Y-73495100D01*
X149640000Y-73535100D02*
X151128000Y-73535100D01*
X149640000Y-73575100D02*
X151136000Y-73575100D01*
X149640000Y-73615100D02*
X151143000Y-73615100D01*
X149640000Y-73655100D02*
X151150000Y-73655100D01*
X149640000Y-73695100D02*
X151156000Y-73695100D01*
X149640000Y-73735100D02*
X151161000Y-73735100D01*
X149640000Y-73775100D02*
X151165000Y-73775100D01*
X149640000Y-73815100D02*
X151169000Y-73815100D01*
X151220000Y-74055100D02*
G75*
G02*
X145980000Y-74055100I-2620000J0D01*
G01*
X145980000Y-74055100D02*
G75*
G02*
X151220000Y-74055100I2620000J0D01*
G01*
X130880000Y-53900000D02*
X130880000Y-60440000D01*
X130880000Y-60440000D02*
X133620000Y-60440000D01*
X132250000Y-53130000D02*
X132250000Y-53900000D01*
X132250000Y-61210000D02*
X132250000Y-60440000D01*
X133620000Y-53900000D02*
X130880000Y-53900000D01*
X133620000Y-60440000D02*
X133620000Y-53900000D01*
X155029000Y-69020000D02*
X155029000Y-79260000D01*
X158160000Y-69020000D02*
X158160000Y-79260000D01*
X159670000Y-69020000D02*
X155029000Y-69020000D01*
X159670000Y-69020000D02*
X159670000Y-79260000D01*
X159670000Y-72290000D02*
X158160000Y-72290000D01*
X159670000Y-75991000D02*
X158160000Y-75991000D01*
X159670000Y-79260000D02*
X155029000Y-79260000D01*
X124130000Y-53900000D02*
X124130000Y-60440000D01*
X124130000Y-60440000D02*
X126870000Y-60440000D01*
X125500000Y-53130000D02*
X125500000Y-53900000D01*
X125500000Y-61210000D02*
X125500000Y-60440000D01*
X126870000Y-53900000D02*
X124130000Y-53900000D01*
X126870000Y-60440000D02*
X126870000Y-53900000D01*
X149710000Y-42250000D02*
X150480000Y-42250000D01*
X150480000Y-40880000D02*
X150480000Y-43620000D01*
X150480000Y-43620000D02*
X157020000Y-43620000D01*
X157020000Y-40880000D02*
X150480000Y-40880000D01*
X157020000Y-43620000D02*
X157020000Y-40880000D01*
X157790000Y-42250000D02*
X157020000Y-42250000D01*
D13*
X105484000Y-64109000D02*
X105484000Y-64871000D01*
X105484000Y-64871000D02*
X121486000Y-64871000D01*
X121486000Y-64871000D02*
X121486000Y-64109000D01*
D12*
X132630000Y-82420000D02*
X132630000Y-85080000D01*
X153010000Y-82420000D02*
X132630000Y-82420000D01*
X153010000Y-82420000D02*
X153010000Y-85080000D01*
X153010000Y-85080000D02*
X132630000Y-85080000D01*
X155610000Y-83750000D02*
X155610000Y-85080000D01*
X155610000Y-85080000D02*
X154280000Y-85080000D01*
X113190000Y-80304000D02*
X113190000Y-80460000D01*
X113190000Y-82620000D02*
X113190000Y-82776000D01*
X113190000Y-80304484D02*
G75*
G02*
X116421397Y-80459939I1560000J-1235516D01*
G01*
X113709039Y-80460000D02*
G75*
G02*
X115790910Y-80459951I1040961J-1080000D01*
G01*
X115790910Y-82620049D02*
G75*
G02*
X113709039Y-82620000I-1040910J1080049D01*
G01*
X116421397Y-82620061D02*
G75*
G02*
X113190000Y-82775516I-1671397J1080061D01*
G01*
X105460000Y-72000000D02*
X106230000Y-72000000D01*
X106230000Y-70630000D02*
X106230000Y-73370000D01*
X106230000Y-73370000D02*
X112770000Y-73370000D01*
X112770000Y-70630000D02*
X106230000Y-70630000D01*
X112770000Y-73370000D02*
X112770000Y-70630000D01*
X113540000Y-72000000D02*
X112770000Y-72000000D01*
X124380000Y-67500000D02*
X125150000Y-67500000D01*
X125150000Y-66130000D02*
X125150000Y-68870000D01*
X125150000Y-68870000D02*
X131690000Y-68870000D01*
X131690000Y-66130000D02*
X125150000Y-66130000D01*
X131690000Y-68870000D02*
X131690000Y-66130000D01*
X132460000Y-67500000D02*
X131690000Y-67500000D01*
X158150000Y-58000000D02*
X158150000Y-57550000D01*
X158150000Y-58000000D02*
X158600000Y-58000000D01*
X158700000Y-52400000D02*
X158700000Y-52850000D01*
X158700000Y-60200000D02*
X158700000Y-59750000D01*
X160550000Y-52400000D02*
X158700000Y-52400000D01*
X160550000Y-60200000D02*
X158700000Y-60200000D01*
X163100000Y-52400000D02*
X162850000Y-52400000D01*
X163100000Y-60200000D02*
X162850000Y-60200000D01*
X162945000Y-73480000D02*
X162945000Y-70880000D01*
X162945000Y-76080000D02*
X162945000Y-74750000D01*
X164275000Y-76080000D02*
X162945000Y-76080000D01*
X165605000Y-70880000D02*
X162945000Y-70880000D01*
X165605000Y-73480000D02*
X162945000Y-73480000D01*
X165605000Y-73480000D02*
X165605000Y-70880000D01*
X105710000Y-80304000D02*
X105710000Y-80460000D01*
X105710000Y-82620000D02*
X105710000Y-82776000D01*
X105710000Y-80304484D02*
G75*
G02*
X108941397Y-80459939I1560000J-1235516D01*
G01*
X106229039Y-80460000D02*
G75*
G02*
X108310910Y-80459951I1040961J-1080000D01*
G01*
X108310910Y-82620049D02*
G75*
G02*
X106229039Y-82620000I-1040910J1080049D01*
G01*
X108941397Y-82620061D02*
G75*
G02*
X105710000Y-82775516I-1671397J1080061D01*
G01*
X138500000Y-45500000D02*
X138500000Y-47000000D01*
X139750000Y-49500000D02*
X144250000Y-49500000D01*
X144250000Y-43000000D02*
X139750000Y-43000000D01*
X145500000Y-47000000D02*
X145500000Y-45500000D01*
X127380000Y-53900000D02*
X127380000Y-60440000D01*
X127380000Y-60440000D02*
X130120000Y-60440000D01*
X128750000Y-53130000D02*
X128750000Y-53900000D01*
X128750000Y-61210000D02*
X128750000Y-60440000D01*
X130120000Y-53900000D02*
X127380000Y-53900000D01*
X130120000Y-60440000D02*
X130120000Y-53900000D01*
X105871000Y-66830000D02*
X107129000Y-66830000D01*
X105871000Y-68670000D02*
X107129000Y-68670000D01*
X148862500Y-52940000D02*
X146912500Y-52940000D01*
X148862500Y-52940000D02*
X150812500Y-52940000D01*
X148862500Y-58060000D02*
X146912500Y-58060000D01*
X148862500Y-58060000D02*
X150812500Y-58060000D01*
X151815000Y-58390000D02*
X151335000Y-58390000D01*
X151575000Y-58060000D01*
X151815000Y-58390000D01*
G36*
X151815000Y-58390000D02*
G01*
X151335000Y-58390000D01*
X151575000Y-58060000D01*
X151815000Y-58390000D01*
G37*
X153860000Y-49970000D02*
X155190000Y-49970000D01*
X153860000Y-51300000D02*
X153860000Y-49970000D01*
X153860000Y-52570000D02*
X153860000Y-62790000D01*
X153860000Y-52570000D02*
X156520000Y-52570000D01*
X153860000Y-62790000D02*
X156520000Y-62790000D01*
X156520000Y-52570000D02*
X156520000Y-62790000D01*
X136871000Y-66580000D02*
X138129000Y-66580000D01*
X136871000Y-68420000D02*
X138129000Y-68420000D01*
X151050000Y-66040000D02*
X147450000Y-66040000D01*
X146925816Y-66767205D02*
G75*
G02*
X147450000Y-66040000I2324184J-1122795D01*
G01*
X149250000Y-70490000D02*
G75*
G02*
X146893600Y-68988807I0J2600000D01*
G01*
X151050000Y-66040000D02*
G75*
G02*
X151574184Y-66767205I-1800000J-1850000D01*
G01*
X151606400Y-68988807D02*
G75*
G02*
X149250000Y-70490000I-2356400J1098807D01*
G01*
X105460000Y-75250000D02*
X106230000Y-75250000D01*
X106230000Y-73880000D02*
X106230000Y-76620000D01*
X106230000Y-76620000D02*
X112770000Y-76620000D01*
X112770000Y-73880000D02*
X106230000Y-73880000D01*
X112770000Y-76620000D02*
X112770000Y-73880000D01*
X113540000Y-75250000D02*
X112770000Y-75250000D01*
X121500000Y-79250000D02*
X121500000Y-80750000D01*
X122750000Y-83250000D02*
X127250000Y-83250000D01*
X127250000Y-76750000D02*
X122750000Y-76750000D01*
X128500000Y-80750000D02*
X128500000Y-79250000D01*
X141830000Y-54379000D02*
X141830000Y-53121000D01*
X143670000Y-54379000D02*
X143670000Y-53121000D01*
X151050000Y-60540000D02*
X147450000Y-60540000D01*
X146925816Y-61267205D02*
G75*
G02*
X147450000Y-60540000I2324184J-1122795D01*
G01*
X149250000Y-64990000D02*
G75*
G02*
X146893600Y-63488807I0J2600000D01*
G01*
X151050000Y-60540000D02*
G75*
G02*
X151574184Y-61267205I-1800000J-1850000D01*
G01*
X151606400Y-63488807D02*
G75*
G02*
X149250000Y-64990000I-2356400J1098807D01*
G01*
X128500000Y-45400000D02*
X128500000Y-46900000D01*
X129750000Y-49400000D02*
X134250000Y-49400000D01*
X134250000Y-42900000D02*
X129750000Y-42900000D01*
X135500000Y-46900000D02*
X135500000Y-45400000D01*
X137630000Y-53900000D02*
X137630000Y-60440000D01*
X137630000Y-60440000D02*
X140370000Y-60440000D01*
X139000000Y-53130000D02*
X139000000Y-53900000D01*
X139000000Y-61210000D02*
X139000000Y-60440000D01*
X140370000Y-53900000D02*
X137630000Y-53900000D01*
X140370000Y-60440000D02*
X140370000Y-53900000D01*
X134380000Y-53900000D02*
X134380000Y-60440000D01*
X134380000Y-60440000D02*
X137120000Y-60440000D01*
X135750000Y-53130000D02*
X135750000Y-53900000D01*
X135750000Y-61210000D02*
X135750000Y-60440000D01*
X137120000Y-53900000D02*
X134380000Y-53900000D01*
X137120000Y-60440000D02*
X137120000Y-53900000D01*
X143120000Y-62011000D02*
X143120000Y-63269000D01*
X144960000Y-62011000D02*
X144960000Y-63269000D01*
X159910436Y-61490000D02*
X161114564Y-61490000D01*
X159910436Y-63310000D02*
X161114564Y-63310000D01*
X97510000Y-70090000D02*
X97510000Y-75230000D01*
X97510000Y-70090000D02*
X100170000Y-70090000D01*
X97510000Y-75230000D02*
X100170000Y-75230000D01*
X98840000Y-67490000D02*
X100170000Y-67490000D01*
X100170000Y-67490000D02*
X100170000Y-68820000D01*
X100170000Y-70090000D02*
X100170000Y-75230000D01*
X97510000Y-57730000D02*
X97510000Y-60330000D01*
X97510000Y-57730000D02*
X100170000Y-57730000D01*
X97510000Y-60330000D02*
X100170000Y-60330000D01*
X98840000Y-55130000D02*
X100170000Y-55130000D01*
X100170000Y-55130000D02*
X100170000Y-56460000D01*
X100170000Y-57730000D02*
X100170000Y-60330000D01*
X151129000Y-49580000D02*
X149871000Y-49580000D01*
X151129000Y-51420000D02*
X149871000Y-51420000D01*
M02*
